<svg id="vector" xmlns="http://www.w3.org/2000/svg" width="24" height="24" viewBox="0 0 24.0 24.0"><defs><linearGradient gradientUnits="userSpaceOnUse" x1="12" y1="0.947" x2="12" y2="22.947" id="gradient_0"><stop stop-color="#9145DF" offset="0.0"/><stop stop-color="#BA62F0" offset="1.0"/></linearGradient></defs><path fill="url(#gradient_0)" d="M17.81,9.236C17.945,9.196 18.087,9.196 18.222,9.236L23.457,10.807C23.778,10.903 24,11.211 24,11.561V16.287C24,18.26 22.993,20.081 21.362,21.06L18.387,22.844C18.157,22.982 17.874,22.982 17.645,22.844L14.67,21.06C13.038,20.081 12.031,18.26 12.031,16.287V11.561C12.031,11.211 12.253,10.903 12.574,10.807L17.81,9.236ZM17.881,17.639C17.359,17.639 16.937,18.058 16.937,18.575C16.937,19.093 17.359,19.513 17.881,19.513C18.403,19.513 18.826,19.093 18.826,18.575C18.826,18.058 18.403,17.639 17.881,17.639ZM17.996,12.329C17.327,12.329 16.809,12.911 16.891,13.569L17.209,15.921C17.264,16.367 17.543,16.701 17.996,16.701C18.449,16.701 18.728,16.367 18.783,15.921L19.102,13.569C19.184,12.911 18.665,12.329 17.996,12.329ZM18.244,0.947C19.333,0.947 20.217,1.823 20.217,2.903L20.262,7.717C20.262,7.848 20.133,7.942 20.007,7.904L18.07,7.323C18.035,7.313 17.997,7.312 17.962,7.321L11.007,9.563C10.663,9.667 10.426,9.997 10.426,10.372V16.161C10.426,16.431 10.205,16.649 9.933,16.649L1.973,16.67C0.883,16.67 0,15.795 0,14.715V2.936C0,1.856 0.883,0.98 1.973,0.98L18.244,0.947ZM4.11,8.125C3.566,8.125 3.125,8.563 3.125,9.103C3.125,9.642 3.566,10.08 4.11,10.08H7.056C7.6,10.08 8.042,9.642 8.042,9.103C8.042,8.563 7.6,8.125 7.056,8.125H4.11ZM4.11,4.213C3.566,4.213 3.125,4.651 3.125,5.191C3.125,5.731 3.566,6.169 4.11,6.169H13.014C13.558,6.169 14,5.731 14,5.191C14,4.651 13.558,4.213 13.014,4.213H4.11Z" id="path_0"/></svg>