<svg id="vector" xmlns="http://www.w3.org/2000/svg" width="24" height="24" viewBox="0 0 24.0 24.0"><defs><linearGradient gradientUnits="userSpaceOnUse" x1="11.714" y1="0.88" x2="11.714" y2="23.147" id="gradient_0"><stop stop-color="#F50031" offset="0.0"/><stop stop-color="#CC0029" offset="1.0"/></linearGradient><linearGradient gradientUnits="userSpaceOnUse" x1="11.556" y1="5.206" x2="11.556" y2="18.488" id="gradient_1"><stop stop-color="#F50031" offset="0.0"/><stop stop-color="#CC0029" offset="1.0"/></linearGradient></defs><path fill="url(#gradient_0)" d="M20.723,4.243C18.21,2.597 14.906,2.698 12.491,4.548C12.26,4.725 11.982,4.795 11.713,4.768C11.447,4.794 11.171,4.726 10.941,4.552C8.525,2.723 5.23,2.613 2.704,4.252V19.928C5.462,18.39 8.916,18.602 11.48,20.566L11.713,20.745L11.948,20.566C14.512,18.603 17.966,18.39 20.723,19.928V4.243ZM22.923,21.047C22.923,22.368 21.408,23.116 20.36,22.313C18.273,20.714 15.373,20.714 13.286,22.313L12.491,22.921C12.26,23.098 11.982,23.169 11.713,23.142C11.445,23.168 11.167,23.098 10.936,22.921L10.142,22.313C8.055,20.714 5.154,20.714 3.068,22.313C2.019,23.116 0.505,22.368 0.505,21.047V3.675C0.505,3.317 0.68,2.98 0.973,2.775L1.221,2.6C4.368,0.39 8.522,0.338 11.71,2.407C15,0.247 19.328,0.378 22.492,2.801C22.763,3.009 22.923,3.333 22.923,3.675V21.047Z" id="path_0"/><path fill="url(#gradient_1)" d="M12.186,6.393C14.139,4.897 16.81,4.815 18.843,6.146V17.368C18.843,17.597 18.596,17.743 18.388,17.648C16.242,16.665 13.681,16.913 11.746,18.395L11.678,18.448C11.606,18.502 11.506,18.501 11.435,18.447L11.367,18.395C9.432,16.913 6.87,16.665 4.725,17.648C4.517,17.743 4.27,17.597 4.27,17.368V6.153C6.312,4.828 8.977,4.917 10.931,6.396C11.117,6.537 11.34,6.591 11.556,6.57C11.773,6.592 11.999,6.536 12.186,6.393ZM10.982,13.797C10.748,13.797 10.558,13.998 10.558,14.245V15.157C10.558,15.404 10.748,15.605 10.982,15.605H12.262C12.497,15.605 12.686,15.404 12.686,15.157V14.245C12.686,13.998 12.496,13.797 12.262,13.797H10.982ZM10.854,8.543C10.694,8.544 10.566,8.683 10.57,8.85L10.731,12.207C10.735,12.368 10.86,12.497 11.014,12.497H12.248C12.402,12.497 12.527,12.368 12.531,12.207L12.688,8.845C12.692,8.677 12.563,8.538 12.403,8.539L10.854,8.543Z" id="path_1"/></svg>