<svg id="vector" xmlns="http://www.w3.org/2000/svg" width="62.0d" height="20.0d" viewBox="0 0 62.0 20.0"><path fill="#263779" d="M23.216,2.361H23.401C23.471,2.361 23.54,2.361 23.587,2.338C23.633,2.338 23.679,2.292 23.725,2.245L24.952,0.694C24.998,0.625 25.068,0.579 25.114,0.556C25.16,0.532 25.23,0.509 25.323,0.509H26.04L24.535,2.361C24.443,2.477 24.35,2.546 24.258,2.592C24.327,2.616 24.397,2.662 24.443,2.685C24.489,2.731 24.559,2.778 24.605,2.847L26.156,4.93H25.438C25.346,4.93 25.276,4.93 25.23,4.884C25.184,4.861 25.137,4.815 25.114,4.768L23.864,3.125C23.818,3.079 23.772,3.032 23.725,3.009C23.679,3.009 23.61,2.986 23.494,2.986H23.239V4.93H22.406V0.486H23.239V2.338L23.216,2.361Z" id="path_0"/><path fill="#263779" d="M30.067,4.93H29.327C29.188,4.93 29.072,4.884 29.026,4.768L28.1,3.356C28.054,3.31 28.031,3.263 27.984,3.24C27.938,3.24 27.892,3.217 27.799,3.217H27.452V4.953H26.618V0.509H27.961C28.262,0.509 28.517,0.532 28.725,0.601C28.933,0.671 29.118,0.74 29.257,0.856C29.396,0.972 29.489,1.111 29.558,1.25C29.628,1.412 29.651,1.574 29.651,1.759C29.651,1.944 29.651,2.06 29.581,2.175C29.535,2.314 29.466,2.43 29.396,2.546C29.327,2.662 29.211,2.754 29.095,2.824C28.979,2.916 28.841,2.962 28.679,3.009C28.725,3.032 28.771,3.078 28.817,3.124C28.864,3.171 28.91,3.217 28.933,3.263L30.044,4.907L30.067,4.93ZM27.938,2.615C28.1,2.615 28.239,2.615 28.354,2.546C28.47,2.5 28.563,2.453 28.632,2.384C28.702,2.314 28.771,2.245 28.794,2.129C28.841,2.037 28.841,1.921 28.841,1.828C28.841,1.597 28.771,1.435 28.609,1.319C28.47,1.203 28.239,1.134 27.938,1.134H27.406V2.615H27.915H27.938Z" id="path_1"/><path fill="#263779" d="M34.35,4.93H33.702C33.632,4.93 33.563,4.93 33.516,4.884C33.47,4.837 33.447,4.814 33.424,4.745L33.1,3.842H31.271L30.947,4.745C30.947,4.791 30.901,4.837 30.854,4.884C30.808,4.93 30.739,4.953 30.669,4.953H30.021L31.757,0.509H32.59L34.326,4.953L34.35,4.93ZM32.891,3.263L32.359,1.782C32.336,1.713 32.313,1.643 32.266,1.551C32.243,1.458 32.22,1.365 32.174,1.25C32.151,1.365 32.128,1.458 32.081,1.551C32.058,1.643 32.035,1.713 31.989,1.782L31.456,3.24H32.868L32.891,3.263Z" id="path_2"/><path fill="#263779" d="M36.479,3.357C36.479,3.611 36.456,3.82 36.386,4.028C36.317,4.236 36.224,4.398 36.109,4.537C35.993,4.676 35.831,4.792 35.646,4.861C35.461,4.931 35.252,4.977 35.021,4.977C34.789,4.977 34.813,4.977 34.697,4.977C34.581,4.977 34.488,4.954 34.373,4.907C34.373,4.815 34.373,4.745 34.373,4.653C34.373,4.56 34.373,4.491 34.373,4.398C34.373,4.352 34.396,4.306 34.419,4.283C34.442,4.259 34.488,4.236 34.558,4.236C34.627,4.236 34.627,4.236 34.697,4.236C34.743,4.236 34.836,4.236 34.905,4.236C34.974,4.236 35.113,4.236 35.206,4.19C35.299,4.167 35.368,4.097 35.437,4.028C35.507,3.958 35.553,3.866 35.576,3.75C35.599,3.634 35.623,3.496 35.623,3.333V0.463H36.456V3.31L36.479,3.357Z" id="path_3"/><path fill="#263779" d="M41.664,2.709C41.664,3.033 41.618,3.333 41.502,3.611C41.386,3.889 41.247,4.12 41.039,4.329C40.854,4.537 40.599,4.699 40.321,4.792C40.044,4.907 39.743,4.954 39.396,4.954C39.048,4.954 38.748,4.907 38.47,4.792C38.192,4.676 37.96,4.514 37.752,4.329C37.544,4.12 37.405,3.889 37.289,3.611C37.174,3.333 37.127,3.033 37.127,2.709C37.127,2.384 37.174,2.084 37.289,1.806C37.405,1.528 37.544,1.297 37.752,1.088C37.96,0.88 38.192,0.718 38.47,0.625C38.748,0.51 39.048,0.463 39.396,0.463C39.743,0.463 39.835,0.486 40.021,0.533C40.229,0.579 40.391,0.648 40.576,0.764C40.738,0.857 40.9,0.973 41.016,1.111C41.155,1.25 41.27,1.389 41.363,1.574C41.456,1.736 41.525,1.922 41.571,2.13C41.618,2.315 41.641,2.523 41.641,2.755L41.664,2.709ZM40.807,2.709C40.807,2.454 40.784,2.246 40.715,2.06C40.646,1.875 40.553,1.713 40.437,1.574C40.321,1.435 40.159,1.343 39.997,1.273C39.835,1.204 39.627,1.158 39.419,1.158C39.21,1.158 39.002,1.204 38.84,1.273C38.678,1.343 38.516,1.459 38.4,1.574C38.285,1.713 38.192,1.875 38.123,2.06C38.053,2.246 38.03,2.477 38.03,2.709C38.03,2.94 38.053,3.171 38.123,3.357C38.192,3.542 38.285,3.704 38.4,3.843C38.516,3.982 38.678,4.074 38.84,4.144C39.002,4.213 39.21,4.259 39.419,4.259C39.627,4.259 39.835,4.213 39.997,4.144C40.159,4.074 40.321,3.958 40.437,3.843C40.553,3.704 40.646,3.542 40.715,3.357C40.784,3.171 40.807,2.94 40.807,2.709Z" id="path_4"/><path fill="#263779" d="M48.192,0.487L46.826,4.931H46.085L45.113,1.899C45.09,1.829 45.067,1.737 45.043,1.621C45.043,1.667 45.02,1.714 44.997,1.76C44.997,1.806 44.974,1.852 44.951,1.876L43.979,4.908H43.238L41.872,0.464H42.567C42.636,0.464 42.706,0.464 42.752,0.51C42.798,0.533 42.821,0.579 42.845,0.649L43.608,3.311C43.608,3.38 43.632,3.45 43.655,3.519C43.655,3.588 43.678,3.681 43.701,3.751C43.701,3.658 43.724,3.588 43.747,3.519C43.747,3.45 43.794,3.38 43.817,3.311L44.696,0.649C44.696,0.603 44.743,0.556 44.789,0.51C44.835,0.464 44.905,0.441 44.974,0.441H45.206C45.275,0.441 45.344,0.441 45.391,0.487C45.437,0.533 45.46,0.556 45.483,0.626L46.34,3.288C46.386,3.403 46.432,3.565 46.456,3.727C46.479,3.565 46.502,3.426 46.548,3.288L47.312,0.626C47.312,0.579 47.358,0.533 47.404,0.487C47.451,0.441 47.52,0.441 47.59,0.441H48.238L48.192,0.487Z" id="path_5"/><path fill="#263779" d="M50.645,3.217V4.93H49.812V3.217L48.191,0.509H48.909C48.978,0.509 49.048,0.509 49.071,0.555C49.117,0.601 49.14,0.625 49.187,0.694L49.997,2.175C50.043,2.268 50.089,2.337 50.112,2.43C50.159,2.5 50.182,2.592 50.205,2.662C50.228,2.592 50.251,2.5 50.298,2.43C50.344,2.361 50.367,2.268 50.413,2.175L51.223,0.694C51.223,0.648 51.27,0.601 51.316,0.578C51.362,0.532 51.409,0.509 51.478,0.509H52.219L50.598,3.217H50.645Z" id="path_6"/><path fill="#263779" d="M23.841,7.059C24.142,7.059 24.396,7.106 24.605,7.175C24.813,7.245 24.998,7.337 25.137,7.476C25.276,7.592 25.392,7.754 25.461,7.916C25.531,8.101 25.554,8.286 25.554,8.495C25.554,8.703 25.508,8.911 25.438,9.096C25.369,9.282 25.253,9.42 25.114,9.559C24.975,9.698 24.79,9.791 24.582,9.86C24.373,9.93 24.119,9.976 23.818,9.976H23.193V11.527H22.36V7.083H23.795L23.841,7.059ZM23.841,9.282C24.003,9.282 24.119,9.282 24.235,9.235C24.35,9.189 24.443,9.143 24.512,9.073C24.582,9.004 24.651,8.911 24.674,8.819C24.721,8.726 24.721,8.61 24.721,8.471C24.721,8.333 24.721,8.24 24.674,8.147C24.628,8.055 24.582,7.962 24.512,7.893C24.443,7.823 24.35,7.777 24.235,7.731C24.119,7.684 23.98,7.684 23.841,7.684H23.216V9.282H23.841Z" id="path_7"/><path fill="#263779" d="M28.795,10.81V11.481H26.202V7.037H27.035V10.786H28.818L28.795,10.81Z" id="path_8"/><path fill="#263779" d="M33.169,11.504H32.521C32.452,11.504 32.382,11.504 32.336,11.458C32.29,11.412 32.266,11.389 32.243,11.319L31.919,10.417H30.091L29.767,11.319C29.767,11.366 29.72,11.412 29.674,11.458C29.628,11.504 29.558,11.528 29.489,11.528H28.841L30.577,7.083H31.41L33.146,11.528L33.169,11.504ZM31.711,9.815L31.178,8.333C31.155,8.264 31.132,8.194 31.086,8.102C31.063,8.009 31.04,7.917 30.993,7.801C30.97,7.917 30.947,8.009 30.901,8.102C30.878,8.194 30.854,8.264 30.808,8.333L30.276,9.792H31.688L31.711,9.815Z" id="path_9"/><path fill="#263779" d="M37.382,7.059V11.504H36.965C36.896,11.504 36.849,11.504 36.803,11.481C36.757,11.481 36.71,11.434 36.687,11.365L34.373,8.402C34.373,8.541 34.373,8.657 34.373,8.772V11.504H33.655V7.059H34.095C34.118,7.059 34.164,7.059 34.188,7.059C34.211,7.059 34.234,7.059 34.257,7.059C34.257,7.059 34.303,7.059 34.303,7.106C34.303,7.106 34.35,7.152 34.373,7.175L36.687,10.138C36.687,10.068 36.687,9.999 36.687,9.93C36.687,9.86 36.687,9.791 36.687,9.744V7.059H37.405H37.382Z" id="path_10"/><path fill="#263779" d="M26.897,15.833C26.897,16.157 26.85,16.458 26.735,16.736C26.619,17.014 26.48,17.245 26.272,17.454C26.087,17.662 25.832,17.824 25.554,17.917C25.276,18.032 24.975,18.079 24.628,18.079C24.281,18.079 23.98,18.032 23.702,17.917C23.425,17.801 23.193,17.639 22.985,17.454C22.777,17.245 22.638,17.014 22.522,16.736C22.406,16.458 22.36,16.157 22.36,15.833C22.36,15.509 22.406,15.208 22.522,14.931C22.638,14.653 22.777,14.421 22.985,14.213C23.193,14.005 23.425,13.843 23.702,13.75C23.98,13.634 24.281,13.588 24.628,13.588C24.975,13.588 25.068,13.611 25.253,13.658C25.462,13.704 25.624,13.773 25.809,13.889C25.971,13.981 26.133,14.097 26.249,14.236C26.387,14.375 26.503,14.514 26.596,14.699C26.688,14.861 26.758,15.046 26.804,15.255C26.85,15.44 26.874,15.648 26.874,15.88L26.897,15.833ZM26.063,15.833C26.063,15.579 26.04,15.37 25.971,15.185C25.901,15 25.809,14.838 25.693,14.699C25.577,14.56 25.415,14.468 25.253,14.398C25.091,14.329 24.883,14.282 24.674,14.282C24.466,14.282 24.258,14.329 24.096,14.398C23.934,14.468 23.772,14.583 23.656,14.699C23.54,14.838 23.448,15 23.378,15.185C23.309,15.37 23.286,15.602 23.286,15.833C23.286,16.065 23.309,16.296 23.378,16.481C23.448,16.667 23.54,16.829 23.656,16.968C23.772,17.106 23.934,17.199 24.096,17.268C24.258,17.338 24.466,17.384 24.674,17.384C24.883,17.384 25.091,17.338 25.253,17.268C25.415,17.199 25.577,17.083 25.693,16.968C25.809,16.829 25.901,16.667 25.971,16.481C26.04,16.296 26.063,16.065 26.063,15.833Z" id="path_11"/><path fill="#263779" d="M31.572,15.833C31.572,16.157 31.526,16.458 31.41,16.735C31.294,17.013 31.156,17.244 30.947,17.43C30.762,17.615 30.507,17.777 30.23,17.893C29.952,18.008 29.651,18.055 29.304,18.055H27.614V13.611H29.304C29.651,13.611 29.952,13.657 30.23,13.773C30.507,13.888 30.739,14.027 30.947,14.236C31.132,14.421 31.294,14.675 31.41,14.93C31.526,15.208 31.572,15.509 31.572,15.833ZM30.716,15.833C30.716,15.578 30.693,15.37 30.623,15.184C30.554,14.999 30.461,14.837 30.345,14.698C30.23,14.559 30.068,14.467 29.906,14.398C29.744,14.328 29.535,14.282 29.327,14.282H28.471V17.407H29.327C29.535,17.407 29.744,17.36 29.906,17.291C30.068,17.221 30.23,17.106 30.345,16.99C30.461,16.851 30.554,16.689 30.623,16.504C30.693,16.319 30.716,16.087 30.716,15.856V15.833Z" id="path_12"/><path fill="#263779" d="M33.817,13.611C34.118,13.611 34.35,13.634 34.558,13.703C34.766,13.749 34.928,13.842 35.067,13.935C35.206,14.027 35.299,14.166 35.368,14.305C35.438,14.444 35.461,14.606 35.461,14.791C35.461,14.976 35.461,14.999 35.414,15.092C35.391,15.184 35.345,15.277 35.276,15.37C35.206,15.462 35.137,15.532 35.021,15.601C34.928,15.671 34.813,15.717 34.674,15.763C35.276,15.902 35.576,16.226 35.576,16.758C35.576,17.291 35.53,17.129 35.461,17.291C35.391,17.453 35.276,17.592 35.137,17.708C34.998,17.823 34.836,17.916 34.627,17.985C34.419,18.055 34.188,18.078 33.933,18.078H32.266V13.634H33.794L33.817,13.611ZM33.123,14.259V15.532H33.771C34.049,15.532 34.257,15.485 34.419,15.37C34.558,15.277 34.627,15.115 34.627,14.884C34.627,14.652 34.558,14.49 34.442,14.398C34.303,14.305 34.118,14.259 33.817,14.259H33.123ZM33.956,17.407C34.118,17.407 34.234,17.407 34.35,17.36C34.465,17.314 34.535,17.268 34.604,17.221C34.674,17.152 34.72,17.083 34.743,17.013C34.766,16.92 34.79,16.851 34.79,16.758C34.79,16.666 34.79,16.573 34.743,16.504C34.72,16.434 34.674,16.365 34.604,16.319C34.535,16.272 34.465,16.226 34.35,16.203C34.257,16.18 34.118,16.157 33.979,16.157H33.146V17.453H33.979L33.956,17.407Z" id="path_13"/><path fill="#263779" d="M38.123,17.383C38.285,17.383 38.424,17.36 38.539,17.314C38.655,17.268 38.771,17.175 38.863,17.083C38.956,16.99 39.025,16.874 39.072,16.735C39.118,16.596 39.141,16.434 39.141,16.272V13.611H39.974V16.272C39.974,16.527 39.928,16.782 39.835,17.013C39.743,17.244 39.627,17.43 39.465,17.592C39.303,17.754 39.118,17.869 38.886,17.962C38.655,18.055 38.4,18.101 38.123,18.101C37.845,18.101 37.59,18.055 37.359,17.962C37.127,17.869 36.942,17.754 36.78,17.592C36.618,17.43 36.502,17.244 36.41,17.013C36.317,16.782 36.271,16.55 36.271,16.272V13.611H37.104V16.272C37.104,16.434 37.104,16.596 37.174,16.735C37.22,16.874 37.289,16.99 37.382,17.083C37.474,17.175 37.567,17.244 37.706,17.314C37.822,17.36 37.984,17.383 38.123,17.383Z" id="path_14"/><path fill="#263779" d="M44.812,15.833C44.812,16.157 44.766,16.458 44.65,16.735C44.534,17.013 44.395,17.244 44.187,17.43C44.002,17.615 43.747,17.777 43.47,17.893C43.192,18.008 42.891,18.055 42.544,18.055H40.854V13.611H42.544C42.891,13.611 43.192,13.657 43.47,13.773C43.747,13.888 43.979,14.027 44.187,14.236C44.372,14.421 44.534,14.675 44.65,14.93C44.766,15.208 44.812,15.509 44.812,15.833ZM43.979,15.833C43.979,15.578 43.956,15.37 43.886,15.184C43.817,14.999 43.724,14.837 43.609,14.698C43.493,14.559 43.331,14.467 43.169,14.398C43.007,14.328 42.798,14.282 42.59,14.282H41.734V17.407H42.59C42.798,17.407 43.007,17.36 43.169,17.291C43.331,17.221 43.493,17.106 43.609,16.99C43.724,16.851 43.817,16.689 43.886,16.504C43.956,16.319 43.979,16.087 43.979,15.856V15.833Z" id="path_15"/><path fill="#263779" d="M49.789,15.833C49.789,16.157 49.742,16.458 49.626,16.736C49.511,17.014 49.372,17.245 49.164,17.454C48.978,17.662 48.724,17.824 48.446,17.917C48.168,18.032 47.867,18.079 47.52,18.079C47.173,18.079 46.872,18.032 46.594,17.917C46.317,17.801 46.085,17.639 45.877,17.454C45.668,17.245 45.53,17.014 45.414,16.736C45.298,16.458 45.252,16.157 45.252,15.833C45.252,15.509 45.298,15.208 45.414,14.931C45.53,14.653 45.668,14.421 45.877,14.213C46.085,14.005 46.317,13.843 46.594,13.75C46.872,13.634 47.173,13.588 47.52,13.588C47.867,13.588 47.96,13.611 48.145,13.658C48.354,13.704 48.515,13.773 48.701,13.889C48.863,13.981 49.025,14.097 49.14,14.236C49.279,14.375 49.395,14.514 49.488,14.699C49.58,14.861 49.65,15.046 49.696,15.255C49.742,15.44 49.765,15.648 49.765,15.88L49.789,15.833ZM48.932,15.833C48.932,15.579 48.909,15.37 48.84,15.185C48.77,15 48.678,14.838 48.562,14.699C48.446,14.56 48.284,14.468 48.122,14.398C47.96,14.329 47.752,14.282 47.543,14.282C47.335,14.282 47.127,14.329 46.965,14.398C46.803,14.468 46.641,14.583 46.525,14.699C46.409,14.838 46.317,15 46.247,15.185C46.178,15.37 46.154,15.602 46.154,15.833C46.154,16.065 46.178,16.296 46.247,16.481C46.317,16.667 46.409,16.829 46.525,16.968C46.641,17.106 46.803,17.199 46.965,17.268C47.127,17.338 47.335,17.384 47.543,17.384C47.752,17.384 47.96,17.338 48.122,17.268C48.284,17.199 48.446,17.083 48.562,16.968C48.678,16.829 48.77,16.667 48.84,16.481C48.909,16.296 48.932,16.065 48.932,15.833Z" id="path_16"/><path fill="#263779" d="M56.316,13.611L54.95,18.055H54.21L53.237,15.023C53.214,14.954 53.191,14.861 53.168,14.745C53.168,14.792 53.145,14.838 53.122,14.884C53.122,14.931 53.099,14.977 53.075,15L52.103,18.032H51.363L49.997,13.588H50.691C50.761,13.588 50.83,13.588 50.876,13.634C50.923,13.657 50.946,13.704 50.969,13.773L51.733,16.435C51.733,16.504 51.756,16.574 51.779,16.643C51.779,16.713 51.802,16.805 51.826,16.875C51.826,16.782 51.849,16.713 51.872,16.643C51.895,16.574 51.918,16.504 51.941,16.435L52.821,13.773C52.821,13.727 52.867,13.681 52.913,13.634C52.96,13.588 53.029,13.565 53.099,13.565H53.33C53.4,13.565 53.469,13.565 53.515,13.611C53.562,13.657 53.585,13.681 53.608,13.75L54.464,16.412C54.511,16.528 54.557,16.69 54.58,16.852C54.603,16.69 54.626,16.551 54.673,16.412L55.436,13.75C55.436,13.704 55.483,13.657 55.529,13.611C55.575,13.565 55.645,13.565 55.714,13.565H56.362L56.316,13.611Z" id="path_17"/><path fill="#263779" d="M58.77,16.343V18.056H57.936V16.343L56.316,13.635H57.034C57.103,13.635 57.172,13.635 57.195,13.681C57.242,13.727 57.265,13.75 57.311,13.82L58.121,15.301C58.168,15.394 58.214,15.463 58.237,15.556C58.283,15.625 58.306,15.718 58.33,15.787C58.353,15.718 58.376,15.625 58.422,15.556C58.445,15.486 58.492,15.394 58.538,15.301L59.348,13.82C59.348,13.774 59.394,13.727 59.441,13.704C59.487,13.658 59.533,13.635 59.603,13.635H60.343L58.723,16.343H58.77Z" id="path_18"/><path fill="#c01422" d="M10.323,4.884L0,7.985V10.184L10.323,7.962V9.791L17.476,11.203V9.976L10.323,7.777V4.884Z" id="path_19"/><path fill="#c01422" d="M10.323,9.907L0,11.295V13.587L10.323,12.985V14.791L17.476,14.351V13.124L10.323,12.893V9.907Z" id="path_20"/><path fill="#c01422" d="M10.323,14.999L0,14.698V16.573L10.323,18.078V19.698L17.476,17.221V16.041L10.323,17.8V14.999Z" id="path_21"/><path fill="#c01422" d="M10.323,2.801V0L0,4.421V6.898L10.323,3.102V4.676L17.476,7.801V6.597L10.323,2.801Z" id="path_22"/></svg>