<svg id="vector" xmlns="http://www.w3.org/2000/svg" width="40.0d" height="20.0d" viewBox="0 0 40.0 20.0"><defs><clipPath id="clip_path_0"><path d="M0,0h40v20h-40z"/></clipPath><clipPath id="clip_path_1"><path d="M45,-5H-5V25H45V-5Z"/></clipPath><clipPath id="clip_path_2"><path d="M45,-5H-5V25H45V-5Z"/></clipPath></defs><g id="g_0"><path fill="#e30613" d="M39.862,18.627H0.138V19.869H39.862V18.627Z" clip-path="url(#clip_path_0)"/><path fill="#ffffff" d="M39.862,17.386H0.138V18.628H39.862V17.386Z"/><path fill="#1d1d1b" d="M39.862,17.301H0.138V17.385H39.862V17.301Z"/><g><path fill="#1d1d1b" d="M5.279,0.236V5.216H4.686V1.557C4.686,1.508 4.69,1.457 4.693,1.4C4.696,1.345 4.699,1.288 4.705,1.23L2.995,4.343C2.941,4.448 2.862,4.5 2.75,4.5H2.654C2.545,4.5 2.463,4.448 2.409,4.343L0.666,1.215C0.681,1.339 0.687,1.451 0.687,1.557V5.216H0.095V0.236H0.591C0.651,0.236 0.697,0.242 0.73,0.254C0.763,0.266 0.793,0.3 0.823,0.351L2.542,3.415C2.569,3.469 2.596,3.53 2.624,3.59C2.651,3.651 2.675,3.711 2.699,3.775C2.723,3.711 2.747,3.651 2.772,3.587C2.796,3.524 2.826,3.466 2.856,3.412L4.545,0.351C4.572,0.297 4.602,0.266 4.635,0.254C4.668,0.242 4.717,0.236 4.777,0.236H5.279Z" clip-path="url(#clip_path_1)"/><path fill="#1d1d1b" d="M7.139,0.592C7.139,0.653 7.127,0.71 7.103,0.762C7.078,0.813 7.045,0.861 7.006,0.901C6.967,0.94 6.918,0.973 6.864,0.997C6.81,1.022 6.752,1.034 6.692,1.034C6.631,1.034 6.574,1.022 6.523,0.997C6.471,0.973 6.426,0.943 6.387,0.901C6.347,0.858 6.317,0.813 6.293,0.762C6.269,0.71 6.257,0.653 6.257,0.592C6.257,0.532 6.269,0.475 6.293,0.42C6.317,0.366 6.347,0.317 6.387,0.278C6.426,0.239 6.471,0.206 6.523,0.181C6.574,0.157 6.631,0.148 6.692,0.148C6.752,0.148 6.81,0.16 6.864,0.181C6.918,0.203 6.967,0.236 7.006,0.278C7.045,0.317 7.078,0.366 7.103,0.42C7.127,0.475 7.139,0.532 7.139,0.592ZM7.009,1.695V5.216H6.39V1.695H7.009Z"/><path fill="#1d1d1b" d="M8.604,2.209C8.679,2.124 8.761,2.045 8.849,1.976C8.936,1.906 9.024,1.846 9.12,1.798C9.217,1.749 9.32,1.71 9.425,1.683C9.534,1.656 9.649,1.644 9.776,1.644C9.969,1.644 10.138,1.677 10.286,1.74C10.434,1.804 10.555,1.894 10.655,2.012C10.755,2.13 10.827,2.269 10.878,2.435C10.93,2.598 10.954,2.783 10.954,2.982V5.224H10.332V2.976C10.332,2.71 10.271,2.502 10.15,2.357C10.03,2.212 9.845,2.136 9.598,2.136C9.413,2.136 9.244,2.181 9.084,2.269C8.924,2.357 8.779,2.478 8.643,2.626V5.218H8.021V1.695H8.393C8.48,1.695 8.534,1.737 8.556,1.825L8.604,2.209Z"/><path fill="#1d1d1b" d="M12.685,0.592C12.685,0.653 12.672,0.71 12.648,0.762C12.624,0.813 12.591,0.861 12.552,0.901C12.512,0.94 12.464,0.973 12.41,0.997C12.355,1.022 12.298,1.034 12.238,1.034C12.177,1.034 12.12,1.022 12.068,0.997C12.017,0.973 11.972,0.943 11.932,0.901C11.893,0.858 11.863,0.813 11.839,0.762C11.815,0.71 11.803,0.653 11.803,0.592C11.803,0.532 11.815,0.475 11.839,0.42C11.863,0.366 11.893,0.317 11.932,0.278C11.972,0.239 12.017,0.206 12.068,0.181C12.12,0.157 12.177,0.148 12.238,0.148C12.298,0.148 12.355,0.16 12.41,0.181C12.464,0.203 12.512,0.236 12.552,0.278C12.591,0.317 12.624,0.366 12.648,0.42C12.672,0.475 12.685,0.532 12.685,0.592ZM12.552,1.695V5.216H11.932V1.695H12.552Z"/><path fill="#1d1d1b" d="M15.615,2.278C15.587,2.33 15.545,2.354 15.485,2.354C15.448,2.354 15.409,2.342 15.367,2.314C15.325,2.287 15.27,2.26 15.207,2.23C15.143,2.2 15.068,2.169 14.98,2.142C14.893,2.115 14.787,2.103 14.669,2.103C14.563,2.103 14.47,2.115 14.388,2.142C14.304,2.169 14.234,2.206 14.174,2.251C14.113,2.296 14.071,2.351 14.038,2.411C14.008,2.472 13.99,2.538 13.99,2.611C13.99,2.701 14.017,2.777 14.068,2.837C14.119,2.898 14.189,2.949 14.273,2.994C14.358,3.04 14.458,3.076 14.566,3.112C14.675,3.145 14.787,3.182 14.902,3.221C15.016,3.26 15.128,3.303 15.237,3.348C15.346,3.393 15.442,3.454 15.53,3.523C15.618,3.593 15.684,3.677 15.735,3.78C15.787,3.88 15.814,4.001 15.814,4.143C15.814,4.306 15.784,4.454 15.726,4.593C15.669,4.732 15.581,4.85 15.469,4.949C15.358,5.049 15.216,5.131 15.053,5.188C14.887,5.243 14.699,5.273 14.482,5.273C14.237,5.273 14.014,5.233 13.814,5.152C13.615,5.073 13.446,4.971 13.307,4.844L13.452,4.608C13.47,4.578 13.491,4.554 13.518,4.538C13.542,4.523 13.576,4.514 13.615,4.514C13.657,4.514 13.7,4.529 13.748,4.563C13.793,4.596 13.851,4.632 13.917,4.671C13.983,4.711 14.062,4.747 14.159,4.78C14.252,4.813 14.373,4.829 14.512,4.829C14.633,4.829 14.739,4.813 14.829,4.78C14.92,4.75 14.995,4.708 15.056,4.653C15.116,4.599 15.161,4.538 15.189,4.469C15.216,4.399 15.231,4.324 15.231,4.245C15.231,4.149 15.204,4.067 15.152,4.004C15.101,3.94 15.031,3.886 14.947,3.84C14.862,3.795 14.763,3.756 14.654,3.723C14.545,3.689 14.431,3.653 14.316,3.617C14.201,3.581 14.089,3.538 13.977,3.49C13.869,3.442 13.769,3.384 13.684,3.312C13.6,3.239 13.53,3.151 13.479,3.046C13.428,2.94 13.401,2.813 13.401,2.662C13.401,2.529 13.428,2.399 13.485,2.275C13.542,2.151 13.621,2.043 13.73,1.949C13.835,1.855 13.968,1.78 14.122,1.725C14.276,1.671 14.455,1.641 14.654,1.641C14.887,1.641 15.095,1.677 15.276,1.749C15.46,1.822 15.62,1.922 15.753,2.049L15.615,2.278Z"/><path fill="#1d1d1b" d="M17.653,5.273C17.376,5.273 17.161,5.194 17.013,5.04C16.865,4.886 16.79,4.662 16.79,4.369V2.215H16.367C16.33,2.215 16.297,2.202 16.273,2.181C16.249,2.16 16.234,2.124 16.234,2.079V1.831L16.811,1.758L16.953,0.67C16.959,0.634 16.974,0.607 17.001,0.586C17.028,0.565 17.059,0.553 17.098,0.553H17.412V1.764H18.43V2.211H17.412V4.324C17.412,4.472 17.448,4.581 17.521,4.653C17.593,4.726 17.684,4.762 17.799,4.762C17.862,4.762 17.919,4.753 17.968,4.735C18.016,4.717 18.055,4.698 18.091,4.677C18.125,4.656 18.155,4.638 18.179,4.62C18.203,4.602 18.224,4.593 18.243,4.593C18.276,4.593 18.303,4.611 18.33,4.653L18.511,4.949C18.406,5.049 18.276,5.127 18.125,5.185C17.968,5.242 17.814,5.273 17.653,5.273Z"/><path fill="#1d1d1b" d="M21.906,4.723C21.83,4.816 21.736,4.895 21.631,4.965C21.525,5.034 21.41,5.088 21.289,5.134C21.169,5.179 21.042,5.209 20.912,5.233C20.782,5.258 20.655,5.267 20.525,5.267C20.284,5.267 20.057,5.224 19.852,5.143C19.646,5.061 19.468,4.94 19.32,4.78C19.172,4.623 19.054,4.427 18.97,4.191C18.885,3.958 18.846,3.689 18.846,3.384C18.846,3.139 18.882,2.91 18.958,2.695C19.033,2.481 19.142,2.296 19.284,2.142C19.426,1.988 19.598,1.864 19.8,1.774C20.003,1.683 20.232,1.641 20.489,1.641C20.701,1.641 20.894,1.677 21.075,1.746C21.253,1.816 21.41,1.919 21.54,2.052C21.67,2.185 21.773,2.351 21.848,2.544C21.924,2.741 21.96,2.964 21.96,3.212C21.96,3.309 21.951,3.375 21.93,3.405C21.909,3.439 21.869,3.454 21.812,3.454H19.459C19.465,3.677 19.495,3.871 19.55,4.034C19.604,4.197 19.68,4.336 19.776,4.445C19.873,4.554 19.991,4.638 20.124,4.693C20.257,4.747 20.407,4.774 20.577,4.774C20.731,4.774 20.867,4.756 20.978,4.72C21.09,4.684 21.187,4.644 21.268,4.602C21.35,4.56 21.416,4.52 21.471,4.484C21.525,4.448 21.57,4.43 21.613,4.43C21.664,4.43 21.703,4.451 21.73,4.49L21.906,4.723ZM21.404,3.073C21.404,2.928 21.383,2.798 21.344,2.677C21.305,2.559 21.244,2.453 21.166,2.369C21.087,2.284 20.993,2.215 20.882,2.166C20.77,2.118 20.643,2.094 20.504,2.094C20.208,2.094 19.973,2.182 19.8,2.354C19.628,2.526 19.52,2.765 19.48,3.07H21.404V3.073Z"/><path fill="#1d1d1b" d="M23.305,2.402C23.416,2.161 23.552,1.973 23.715,1.837C23.878,1.701 24.075,1.635 24.31,1.635C24.386,1.635 24.455,1.644 24.525,1.659C24.594,1.674 24.655,1.701 24.706,1.734L24.661,2.197C24.646,2.254 24.612,2.284 24.558,2.284C24.525,2.284 24.48,2.278 24.416,2.263C24.353,2.248 24.283,2.242 24.205,2.242C24.093,2.242 23.993,2.257 23.909,2.29C23.821,2.324 23.746,2.372 23.676,2.436C23.607,2.499 23.546,2.578 23.492,2.671C23.438,2.765 23.389,2.874 23.344,2.992V5.216H22.722V1.695H23.075C23.142,1.695 23.19,1.707 23.214,1.734C23.238,1.759 23.256,1.804 23.265,1.867L23.305,2.402Z"/><path fill="#1d1d1b" d="M27.282,2.278C27.255,2.329 27.213,2.354 27.152,2.354C27.119,2.354 27.077,2.342 27.035,2.314C26.992,2.287 26.938,2.26 26.871,2.23C26.805,2.2 26.732,2.169 26.645,2.142C26.557,2.115 26.451,2.103 26.331,2.103C26.228,2.103 26.131,2.115 26.05,2.142C25.965,2.169 25.896,2.206 25.835,2.251C25.775,2.296 25.733,2.351 25.699,2.411C25.669,2.472 25.651,2.538 25.651,2.611C25.651,2.701 25.678,2.777 25.73,2.837C25.781,2.898 25.851,2.949 25.935,2.994C26.02,3.04 26.119,3.076 26.228,3.112C26.337,3.145 26.448,3.182 26.563,3.221C26.678,3.26 26.79,3.303 26.899,3.348C27.007,3.393 27.104,3.454 27.191,3.523C27.276,3.593 27.346,3.677 27.397,3.78C27.448,3.88 27.476,4.001 27.476,4.143C27.476,4.306 27.445,4.454 27.388,4.593C27.33,4.732 27.243,4.85 27.131,4.949C27.016,5.049 26.88,5.131 26.714,5.188C26.551,5.245 26.361,5.276 26.143,5.276C25.899,5.276 25.675,5.236 25.476,5.155C25.277,5.076 25.107,4.974 24.969,4.847L25.114,4.611C25.132,4.581 25.153,4.557 25.18,4.541C25.204,4.526 25.237,4.517 25.277,4.517C25.319,4.517 25.361,4.532 25.41,4.566C25.455,4.599 25.512,4.635 25.579,4.674C25.645,4.714 25.724,4.75 25.82,4.783C25.914,4.816 26.035,4.832 26.174,4.832C26.295,4.832 26.4,4.816 26.491,4.783C26.581,4.75 26.657,4.711 26.717,4.656C26.778,4.602 26.823,4.541 26.85,4.472C26.88,4.402 26.892,4.327 26.892,4.248C26.892,4.152 26.865,4.07 26.814,4.007C26.763,3.943 26.693,3.889 26.609,3.843C26.524,3.798 26.424,3.759 26.316,3.726C26.207,3.692 26.092,3.656 25.977,3.62C25.862,3.584 25.751,3.541 25.639,3.493C25.53,3.445 25.431,3.387 25.346,3.315C25.261,3.242 25.192,3.154 25.141,3.049C25.089,2.943 25.062,2.816 25.062,2.665C25.062,2.532 25.089,2.402 25.147,2.278C25.201,2.154 25.283,2.045 25.388,1.952C25.494,1.858 25.627,1.783 25.781,1.728C25.935,1.674 26.113,1.644 26.313,1.644C26.545,1.644 26.754,1.68 26.935,1.752C27.119,1.825 27.279,1.925 27.412,2.051L27.282,2.278Z"/><path fill="#1d1d1b" d="M29.321,5.273C29.043,5.273 28.829,5.194 28.681,5.04C28.532,4.886 28.457,4.662 28.457,4.369V2.215H28.034C27.998,2.215 27.965,2.202 27.941,2.181C27.916,2.16 27.901,2.124 27.901,2.079V1.831L28.478,1.758L28.62,0.67C28.626,0.634 28.641,0.607 28.668,0.586C28.693,0.565 28.726,0.553 28.765,0.553H29.079V1.764H30.097V2.211H29.079V4.324C29.079,4.472 29.115,4.581 29.188,4.653C29.26,4.726 29.351,4.762 29.466,4.762C29.529,4.762 29.587,4.753 29.635,4.735C29.683,4.717 29.723,4.698 29.759,4.677C29.795,4.656 29.822,4.638 29.846,4.62C29.871,4.602 29.892,4.593 29.91,4.593C29.943,4.593 29.97,4.611 29.997,4.653L30.179,4.949C30.073,5.049 29.943,5.127 29.792,5.185C29.635,5.242 29.481,5.273 29.321,5.273Z"/><path fill="#1d1d1b" d="M35.582,1.695L34.443,5.215H33.954C33.894,5.215 33.851,5.176 33.83,5.098L33.051,2.71C33.033,2.656 33.018,2.605 33.006,2.55C32.993,2.496 32.981,2.441 32.972,2.39C32.96,2.445 32.948,2.496 32.936,2.55C32.924,2.605 32.909,2.659 32.891,2.716L32.099,5.101C32.078,5.179 32.033,5.219 31.961,5.219H31.495L30.357,1.698H30.843C30.891,1.698 30.934,1.71 30.967,1.737C31,1.765 31.024,1.792 31.033,1.828L31.707,4.094C31.746,4.261 31.776,4.418 31.8,4.566C31.822,4.49 31.843,4.412 31.864,4.333C31.885,4.255 31.909,4.176 31.936,4.094L32.679,1.816C32.692,1.783 32.71,1.753 32.74,1.728C32.77,1.704 32.803,1.695 32.846,1.695H33.117C33.163,1.695 33.202,1.707 33.232,1.728C33.262,1.75 33.284,1.78 33.296,1.816L34.021,4.094C34.045,4.176 34.069,4.255 34.09,4.333C34.111,4.412 34.129,4.49 34.15,4.566C34.162,4.49 34.178,4.412 34.193,4.336C34.208,4.261 34.229,4.179 34.25,4.094L34.939,1.828C34.951,1.792 34.972,1.762 35.005,1.737C35.038,1.713 35.075,1.701 35.12,1.701H35.582V1.695Z"/><path fill="#1d1d1b" d="M37.63,1.641C37.887,1.641 38.119,1.683 38.325,1.771C38.53,1.855 38.705,1.979 38.853,2.136C38.998,2.293 39.11,2.484 39.189,2.707C39.267,2.931 39.306,3.182 39.306,3.457C39.306,3.735 39.267,3.986 39.189,4.206C39.11,4.43 38.998,4.617 38.853,4.777C38.708,4.934 38.53,5.055 38.325,5.14C38.119,5.224 37.887,5.267 37.63,5.267C37.37,5.267 37.138,5.224 36.929,5.14C36.721,5.055 36.546,4.934 36.401,4.777C36.256,4.62 36.144,4.43 36.066,4.206C35.987,3.982 35.948,3.735 35.948,3.457C35.948,3.182 35.987,2.931 36.066,2.707C36.144,2.484 36.256,2.293 36.401,2.136C36.546,1.979 36.724,1.858 36.929,1.771C37.135,1.683 37.37,1.641 37.63,1.641ZM37.63,4.783C37.978,4.783 38.237,4.665 38.409,4.433C38.582,4.2 38.666,3.874 38.666,3.457C38.666,3.037 38.582,2.71 38.409,2.478C38.237,2.245 37.978,2.127 37.63,2.127C37.455,2.127 37.301,2.157 37.171,2.218C37.041,2.278 36.932,2.366 36.845,2.478C36.757,2.592 36.694,2.731 36.652,2.898C36.609,3.064 36.588,3.251 36.588,3.46C36.588,3.877 36.676,4.203 36.848,4.436C37.02,4.668 37.277,4.783 37.63,4.783Z"/></g><g><path fill="#1d1d1b" d="M3.593,11.952C3.63,11.952 3.663,11.967 3.69,11.998L3.959,12.288C3.756,12.524 3.509,12.708 3.216,12.841C2.926,12.974 2.572,13.04 2.162,13.04C1.805,13.04 1.482,12.977 1.189,12.853C0.896,12.729 0.648,12.557 0.443,12.333C0.238,12.109 0.078,11.84 -0.037,11.529C-0.152,11.215 -0.206,10.874 -0.206,10.496C-0.206,10.121 -0.146,9.777 -0.028,9.462C0.09,9.148 0.256,8.882 0.47,8.656C0.685,8.429 0.941,8.257 1.24,8.133C1.539,8.009 1.869,7.945 2.231,7.945C2.585,7.945 2.899,8.003 3.168,8.115C3.439,8.23 3.678,8.384 3.883,8.577L3.66,8.885C3.645,8.909 3.627,8.928 3.605,8.943C3.584,8.958 3.554,8.964 3.518,8.964C3.476,8.964 3.424,8.943 3.364,8.897C3.303,8.852 3.225,8.801 3.128,8.746C3.032,8.692 2.911,8.641 2.763,8.595C2.615,8.55 2.437,8.529 2.225,8.529C1.968,8.529 1.733,8.574 1.521,8.662C1.307,8.749 1.126,8.879 0.972,9.048C0.818,9.218 0.697,9.423 0.612,9.668C0.528,9.913 0.482,10.185 0.482,10.493C0.482,10.804 0.528,11.079 0.615,11.324C0.706,11.566 0.827,11.774 0.981,11.94C1.135,12.106 1.316,12.236 1.527,12.324C1.736,12.412 1.962,12.457 2.207,12.457C2.355,12.457 2.488,12.448 2.609,12.43C2.73,12.412 2.838,12.384 2.938,12.348C3.038,12.312 3.131,12.264 3.219,12.206C3.306,12.149 3.391,12.082 3.479,12.004C3.515,11.97 3.554,11.952 3.593,11.952Z" clip-path="url(#clip_path_2)"/><path fill="#1d1d1b" d="M7.511,9.462L5.547,14.022C5.526,14.067 5.499,14.106 5.469,14.134C5.439,14.161 5.39,14.176 5.324,14.176H4.865L5.508,12.78L4.055,9.465H4.59C4.644,9.465 4.686,9.477 4.717,9.504C4.747,9.531 4.768,9.562 4.78,9.592L5.722,11.81C5.759,11.906 5.792,12.009 5.816,12.115C5.849,12.006 5.883,11.903 5.922,11.807L6.834,9.592C6.849,9.556 6.87,9.525 6.906,9.501C6.94,9.477 6.979,9.465 7.018,9.465H7.511V9.462Z"/><path fill="#1d1d1b" d="M8.287,12.983V9.992L7.897,9.946C7.849,9.934 7.81,9.916 7.777,9.892C7.746,9.868 7.728,9.832 7.728,9.786V9.532H8.284V9.191C8.284,8.989 8.311,8.81 8.369,8.653C8.426,8.496 8.508,8.366 8.613,8.257C8.719,8.149 8.846,8.067 8.994,8.013C9.142,7.958 9.308,7.928 9.495,7.928C9.652,7.928 9.797,7.952 9.93,7.997L9.915,8.306C9.909,8.36 9.879,8.39 9.824,8.396C9.767,8.402 9.692,8.402 9.598,8.402C9.492,8.402 9.396,8.417 9.308,8.445C9.22,8.472 9.145,8.517 9.084,8.581C9.021,8.644 8.973,8.726 8.939,8.828C8.906,8.931 8.888,9.058 8.888,9.206V9.529H9.903V9.977H8.909V12.98H8.287V12.983Z"/><path fill="#1d1d1b" d="M11.078,10.166C11.19,9.924 11.326,9.737 11.489,9.601C11.652,9.465 11.848,9.399 12.084,9.399C12.159,9.399 12.229,9.408 12.298,9.423C12.368,9.438 12.428,9.465 12.479,9.498L12.434,9.961C12.419,10.018 12.386,10.048 12.328,10.048C12.295,10.048 12.25,10.042 12.186,10.027C12.123,10.012 12.054,10.006 11.975,10.006C11.863,10.006 11.764,10.021 11.679,10.054C11.592,10.088 11.516,10.136 11.446,10.199C11.377,10.263 11.317,10.341 11.262,10.435C11.208,10.529 11.16,10.637 11.114,10.755V12.979H10.492V9.462H10.845C10.912,9.462 10.96,9.474 10.984,9.501C11.009,9.529 11.027,9.571 11.036,9.634L11.078,10.166Z"/><path fill="#1d1d1b" d="M16.056,9.462L14.092,14.022C14.071,14.067 14.044,14.106 14.014,14.134C13.984,14.161 13.935,14.176 13.869,14.176H13.41L14.053,12.78L12.6,9.465H13.135C13.189,9.465 13.232,9.477 13.262,9.504C13.292,9.531 13.313,9.562 13.325,9.592L14.268,11.81C14.304,11.906 14.337,12.009 14.361,12.115C14.394,12.006 14.428,11.903 14.467,11.807L15.379,9.592C15.394,9.556 15.415,9.525 15.452,9.501C15.485,9.477 15.524,9.465 15.563,9.465H16.056V9.462Z"/><path fill="#1d1d1b" d="M19.031,9.726C19.031,9.771 19.025,9.813 19.01,9.856C18.995,9.898 18.974,9.934 18.949,9.965L17.044,12.503H18.968V12.986H16.319V12.729C16.319,12.699 16.325,12.663 16.34,12.624C16.355,12.584 16.376,12.545 16.403,12.509L18.321,9.955H16.427V9.469H19.037V9.726H19.031Z"/><path fill="#1d1d1b" d="M19.65,9.958C19.843,9.77 20.055,9.631 20.278,9.538C20.502,9.444 20.753,9.399 21.024,9.399C21.221,9.399 21.396,9.432 21.55,9.495C21.704,9.559 21.831,9.649 21.937,9.767C22.039,9.882 22.121,10.024 22.172,10.187C22.226,10.351 22.251,10.532 22.251,10.728V12.979H21.976C21.915,12.979 21.87,12.97 21.837,12.949C21.804,12.928 21.779,12.892 21.761,12.831L21.692,12.499C21.598,12.584 21.508,12.659 21.42,12.726C21.332,12.792 21.239,12.846 21.142,12.892C21.045,12.937 20.943,12.97 20.831,12.998C20.722,13.022 20.598,13.034 20.466,13.034C20.33,13.034 20.2,13.016 20.079,12.976C19.958,12.937 19.852,12.88 19.765,12.804C19.677,12.729 19.605,12.632 19.553,12.514C19.502,12.396 19.475,12.257 19.475,12.1C19.475,11.961 19.514,11.828 19.59,11.698C19.665,11.568 19.789,11.456 19.961,11.357C20.133,11.257 20.357,11.175 20.632,11.112C20.906,11.049 21.245,11.012 21.646,11.003V10.728C21.646,10.456 21.586,10.248 21.468,10.109C21.351,9.97 21.178,9.897 20.952,9.897C20.798,9.897 20.671,9.915 20.568,9.955C20.466,9.994 20.375,10.036 20.299,10.085C20.224,10.133 20.16,10.175 20.106,10.215C20.052,10.254 19.997,10.272 19.946,10.272C19.904,10.272 19.868,10.26 19.837,10.239C19.807,10.217 19.783,10.19 19.762,10.157L19.65,9.958ZM21.65,11.396C21.366,11.405 21.121,11.429 20.922,11.462C20.722,11.499 20.559,11.544 20.432,11.604C20.306,11.665 20.215,11.731 20.157,11.81C20.1,11.889 20.073,11.976 20.073,12.073C20.073,12.167 20.088,12.245 20.118,12.312C20.148,12.378 20.191,12.432 20.242,12.478C20.293,12.52 20.357,12.553 20.426,12.571C20.496,12.593 20.574,12.602 20.653,12.602C20.762,12.602 20.861,12.59 20.952,12.568C21.042,12.547 21.127,12.514 21.209,12.472C21.29,12.429 21.366,12.381 21.438,12.321C21.511,12.263 21.583,12.197 21.653,12.121V11.396H21.65Z"/><path fill="#1d1d1b" d="M25.643,10.087C25.625,10.112 25.607,10.133 25.588,10.148C25.57,10.163 25.543,10.169 25.513,10.169C25.477,10.169 25.44,10.154 25.398,10.127C25.356,10.097 25.304,10.066 25.244,10.03C25.184,9.994 25.108,9.964 25.017,9.933C24.927,9.903 24.818,9.891 24.688,9.891C24.513,9.891 24.362,9.921 24.229,9.982C24.096,10.042 23.987,10.133 23.897,10.248C23.806,10.362 23.74,10.501 23.694,10.668C23.649,10.831 23.628,11.015 23.628,11.221C23.628,11.435 23.652,11.623 23.701,11.789C23.749,11.955 23.818,12.094 23.906,12.206C23.994,12.318 24.102,12.405 24.229,12.462C24.356,12.523 24.498,12.55 24.655,12.55C24.806,12.55 24.93,12.532 25.027,12.496C25.123,12.46 25.205,12.42 25.268,12.375C25.332,12.33 25.386,12.29 25.428,12.254C25.471,12.218 25.513,12.2 25.555,12.2C25.607,12.2 25.646,12.221 25.673,12.26L25.848,12.487C25.773,12.58 25.685,12.662 25.588,12.728C25.492,12.795 25.386,12.852 25.274,12.898C25.163,12.943 25.045,12.976 24.921,12.997C24.797,13.019 24.673,13.028 24.546,13.028C24.326,13.028 24.12,12.988 23.933,12.907C23.746,12.825 23.58,12.707 23.441,12.553C23.302,12.399 23.193,12.209 23.115,11.985C23.036,11.762 22.997,11.505 22.997,11.217C22.997,10.955 23.033,10.713 23.106,10.492C23.178,10.269 23.284,10.078 23.426,9.918C23.568,9.758 23.74,9.631 23.942,9.54C24.148,9.45 24.383,9.404 24.649,9.404C24.897,9.404 25.114,9.444 25.304,9.525C25.492,9.604 25.661,9.719 25.806,9.864L25.643,10.087Z"/><path fill="#1d1d1b" d="M27.164,9.462V13.243C27.164,13.384 27.146,13.514 27.11,13.638C27.074,13.759 27.014,13.865 26.932,13.956C26.85,14.046 26.748,14.119 26.621,14.17C26.494,14.222 26.343,14.249 26.168,14.249C26.092,14.249 26.026,14.243 25.962,14.231C25.899,14.219 25.839,14.2 25.775,14.179L25.799,13.847C25.805,13.826 25.811,13.811 25.823,13.799C25.833,13.789 25.848,13.78 25.866,13.78C25.884,13.777 25.908,13.777 25.938,13.777C25.969,13.777 26.005,13.78 26.047,13.78C26.228,13.78 26.355,13.738 26.434,13.653C26.509,13.569 26.548,13.433 26.548,13.245V9.462H27.164ZM27.291,8.356C27.291,8.417 27.279,8.474 27.255,8.526C27.231,8.577 27.198,8.625 27.159,8.665C27.119,8.704 27.071,8.737 27.017,8.761C26.962,8.785 26.908,8.797 26.847,8.797C26.787,8.797 26.73,8.785 26.678,8.761C26.627,8.737 26.582,8.707 26.539,8.665C26.5,8.625 26.47,8.577 26.446,8.526C26.421,8.474 26.413,8.417 26.413,8.356C26.413,8.296 26.424,8.238 26.446,8.184C26.47,8.13 26.5,8.081 26.539,8.042C26.579,8.003 26.624,7.97 26.678,7.945C26.73,7.921 26.787,7.912 26.847,7.912C26.908,7.912 26.965,7.924 27.017,7.945C27.071,7.97 27.116,8 27.159,8.042C27.198,8.081 27.231,8.13 27.255,8.184C27.279,8.238 27.291,8.296 27.291,8.356Z"/><path fill="#1d1d1b" d="M28.962,8.356C28.962,8.417 28.95,8.474 28.926,8.526C28.902,8.577 28.868,8.625 28.829,8.665C28.79,8.704 28.742,8.737 28.687,8.761C28.633,8.785 28.575,8.797 28.515,8.797C28.455,8.797 28.397,8.785 28.346,8.761C28.295,8.737 28.249,8.707 28.207,8.665C28.168,8.625 28.138,8.577 28.113,8.526C28.089,8.474 28.08,8.417 28.08,8.356C28.08,8.296 28.092,8.238 28.113,8.184C28.138,8.13 28.168,8.081 28.207,8.042C28.246,8.003 28.292,7.97 28.346,7.945C28.397,7.921 28.455,7.912 28.515,7.912C28.575,7.912 28.633,7.924 28.687,7.945C28.742,7.97 28.79,8 28.829,8.042C28.868,8.081 28.902,8.13 28.926,8.184C28.95,8.238 28.962,8.296 28.962,8.356ZM28.832,9.462V12.983H28.213V9.462H28.832Z"/></g></g></svg>