<svg id="vector" xmlns="http://www.w3.org/2000/svg" width="89.0d" height="20.0d" viewBox="0 0 89.0 20.0"><path fill="#003399" d="M89,0.002H57.585V20.002H89V0.002Z" id="path_0"/><path fill="#ffcc00" d="M73.268,2.4L73.539,3.153H74.376L73.686,3.624L73.957,4.377L73.268,3.906L72.603,4.377L72.874,3.624L72.185,3.153H73.022L73.268,2.4Z" id="path_1"/><path fill="#ffcc00" d="M73.268,15.6L73.539,16.353H74.376L73.686,16.824L73.957,17.577L73.268,17.106L72.603,17.577L72.874,16.824L72.185,16.353H73.022L73.268,15.6Z" id="path_2"/><path fill="#ffcc00" d="M66.424,8.966L66.67,9.719H67.507L66.842,10.189L67.088,10.942L66.424,10.472L65.759,10.942L66.005,10.189L65.34,9.719H66.177L66.424,8.966Z" id="path_3"/><path fill="#ffcc00" d="M80.137,8.966L80.383,9.719H81.22L80.555,10.189L80.801,10.942L80.137,10.472L79.472,10.942L79.718,10.189L79.053,9.719H79.866L80.137,8.966Z" id="path_4"/><path fill="#ffcc00" d="M76.69,3.295L76.936,4.048H77.773L77.108,4.519L77.355,5.272L76.69,4.801L76.025,5.272L76.271,4.519L75.607,4.048H76.444L76.69,3.295Z" id="path_5"/><path fill="#ffcc00" d="M69.87,3.295L70.117,4.048H70.954L70.289,4.519L70.535,5.272L69.87,4.801L69.206,5.272L69.452,4.519L68.787,4.048H69.6L69.87,3.295Z" id="path_6"/><path fill="#ffcc00" d="M76.69,14.636L76.936,15.389H77.773L77.108,15.859L77.355,16.612L76.69,16.142L76.025,16.612L76.271,15.859L75.607,15.389H76.444L76.69,14.636Z" id="path_7"/><path fill="#ffcc00" d="M69.87,14.636L70.117,15.389H70.954L70.289,15.859L70.535,16.612L69.87,16.142L69.206,16.612L69.452,15.859L68.787,15.389H69.6L69.87,14.636Z" id="path_8"/><path fill="#ffcc00" d="M79.201,5.672L79.447,6.425H80.284L79.62,6.895L79.866,7.648L79.201,7.178L78.536,7.648L78.783,6.895L78.118,6.425H78.955L79.201,5.672Z" id="path_9"/><path fill="#ffcc00" d="M67.359,5.672L67.605,6.425H68.442L67.778,6.895L68.024,7.648L67.359,7.178L66.694,7.648L66.941,6.895L66.276,6.425H67.088L67.359,5.672Z" id="path_10"/><path fill="#ffcc00" d="M79.201,12.236L79.447,12.989H80.284L79.62,13.436L79.866,14.189L79.201,13.742L78.536,14.189L78.783,13.436L78.118,12.989H78.955L79.201,12.236Z" id="path_11"/><path fill="#ffcc00" d="M67.359,12.236L67.605,12.989H68.442L67.778,13.436L68.024,14.189L67.359,13.742L66.694,14.189L66.941,13.436L66.276,12.989H67.088L67.359,12.236Z" id="path_12"/><path fill="#000000" d="M4.899,4.66C5.441,4.66 5.712,4.472 5.712,4.119C5.712,3.766 5.712,3.907 5.638,3.837C5.564,3.766 5.515,3.695 5.441,3.625C5.367,3.578 5.269,3.507 5.145,3.484C5.047,3.437 4.924,3.389 4.801,3.366C4.653,3.319 4.53,3.272 4.407,3.225C4.284,3.178 4.185,3.107 4.087,3.013C3.988,2.942 3.914,2.848 3.865,2.731C3.816,2.613 3.791,2.495 3.791,2.354C3.791,2.048 3.914,1.789 4.136,1.625C4.358,1.46 4.678,1.366 5.072,1.366C5.465,1.366 5.515,1.366 5.687,1.437C5.884,1.484 6.007,1.531 6.106,1.578L5.933,1.978C5.859,1.931 5.736,1.884 5.589,1.837C5.441,1.789 5.269,1.766 5.072,1.766C4.875,1.766 4.875,1.766 4.801,1.789C4.702,1.789 4.628,1.837 4.579,1.884C4.505,1.931 4.456,1.978 4.431,2.048C4.382,2.119 4.382,2.189 4.382,2.284C4.382,2.378 4.382,2.472 4.431,2.519C4.481,2.589 4.53,2.637 4.604,2.684C4.678,2.731 4.752,2.778 4.85,2.825C4.948,2.872 5.047,2.919 5.17,2.942C5.342,3.013 5.49,3.06 5.613,3.131C5.736,3.201 5.859,3.272 5.958,3.342C6.056,3.437 6.13,3.531 6.179,3.648C6.229,3.766 6.253,3.907 6.253,4.072C6.253,4.378 6.13,4.637 5.884,4.801C5.638,4.966 5.293,5.06 4.875,5.06C4.456,5.06 4.579,5.06 4.456,5.037C4.333,5.013 4.21,4.989 4.111,4.966C4.013,4.942 3.939,4.919 3.865,4.872C3.791,4.848 3.742,4.825 3.693,4.801L3.841,4.378C3.914,4.425 4.062,4.472 4.21,4.519C4.382,4.566 4.579,4.613 4.825,4.613L4.899,4.66Z" id="path_13"/><path fill="#000000" d="M8.05,0.989C8.198,0.989 8.321,0.989 8.444,1.013C8.567,1.036 8.616,1.06 8.665,1.06L8.567,1.484C8.517,1.484 8.468,1.436 8.394,1.413C8.321,1.413 8.222,1.389 8.099,1.389C7.853,1.389 7.705,1.46 7.607,1.578C7.509,1.695 7.459,1.86 7.459,2.072V2.307H8.542V2.707H7.459V4.989H6.967V2.048C6.967,1.695 7.066,1.436 7.238,1.248C7.41,1.06 7.681,0.966 8.075,0.966L8.05,0.989Z" id="path_14"/><path fill="#000000" d="M9.38,1.837C9.281,1.837 9.207,1.813 9.158,1.742C9.084,1.695 9.06,1.601 9.06,1.507C9.06,1.413 9.084,1.342 9.158,1.272C9.232,1.225 9.306,1.178 9.38,1.178C9.454,1.178 9.552,1.201 9.601,1.272C9.675,1.319 9.7,1.413 9.7,1.507C9.7,1.601 9.675,1.672 9.601,1.742C9.527,1.789 9.454,1.837 9.38,1.837ZM9.626,5.013H9.134V2.331H9.626V5.013Z" id="path_15"/><path fill="#000000" d="M10.488,2.401C10.611,2.377 10.759,2.354 10.956,2.307C11.153,2.283 11.374,2.26 11.62,2.26C11.867,2.26 12.039,2.283 12.187,2.354C12.334,2.424 12.458,2.495 12.531,2.613C12.63,2.73 12.679,2.848 12.728,3.013C12.753,3.154 12.778,3.342 12.778,3.507V5.013H12.285V3.601C12.285,3.436 12.285,3.295 12.26,3.177C12.26,3.06 12.187,2.966 12.137,2.895C12.088,2.824 12.014,2.777 11.916,2.73C11.817,2.707 11.719,2.683 11.571,2.683C11.424,2.683 11.473,2.683 11.399,2.683C11.35,2.683 11.276,2.683 11.226,2.683C11.177,2.683 11.128,2.683 11.079,2.683C11.03,2.683 11.005,2.683 10.98,2.683V4.966H10.488V2.354V2.401Z" id="path_16"/><path fill="#000000" d="M14.476,2.26C14.673,2.26 14.845,2.284 14.993,2.331C15.141,2.378 15.239,2.448 15.338,2.542C15.436,2.637 15.486,2.754 15.51,2.872C15.535,2.99 15.559,3.131 15.559,3.295V4.966C15.51,4.966 15.461,4.966 15.387,4.99C15.313,4.99 15.215,4.99 15.116,5.013C15.018,5.013 14.919,5.013 14.796,5.037C14.673,5.06 14.575,5.037 14.451,5.037C14.304,5.037 14.156,5.037 14.008,4.99C13.885,4.966 13.762,4.919 13.664,4.848C13.565,4.778 13.491,4.684 13.442,4.59C13.393,4.495 13.368,4.354 13.368,4.19C13.368,4.025 13.393,3.907 13.467,3.813C13.541,3.695 13.615,3.625 13.713,3.554C13.811,3.484 13.959,3.437 14.082,3.413C14.23,3.39 14.378,3.366 14.525,3.366C14.673,3.366 14.624,3.366 14.673,3.366C14.722,3.366 14.772,3.366 14.821,3.366C14.87,3.366 14.919,3.366 14.944,3.366C14.969,3.366 14.993,3.366 15.018,3.366V3.225C15.018,3.154 15.018,3.06 14.993,2.99C14.993,2.919 14.944,2.848 14.895,2.778C14.845,2.707 14.772,2.66 14.698,2.637C14.624,2.59 14.501,2.59 14.378,2.59C14.255,2.59 14.058,2.59 13.934,2.613C13.811,2.613 13.713,2.66 13.664,2.684L13.615,2.284C13.688,2.26 13.787,2.237 13.934,2.213C14.082,2.19 14.255,2.166 14.427,2.166L14.476,2.26ZM14.525,4.66C14.649,4.66 14.747,4.66 14.845,4.66C14.944,4.66 15.018,4.66 15.067,4.637V3.837C15.042,3.837 14.969,3.813 14.895,3.79C14.821,3.79 14.722,3.79 14.599,3.79C14.476,3.79 14.452,3.79 14.353,3.79C14.255,3.79 14.181,3.813 14.132,3.86C14.058,3.884 14.008,3.931 13.959,4.001C13.91,4.048 13.885,4.142 13.885,4.237C13.885,4.401 13.934,4.519 14.058,4.59C14.181,4.66 14.328,4.684 14.525,4.684V4.66Z" id="path_17"/><path fill="#000000" d="M16.397,2.401C16.52,2.377 16.667,2.354 16.864,2.307C17.061,2.283 17.283,2.26 17.529,2.26C17.775,2.26 17.948,2.283 18.095,2.354C18.243,2.424 18.366,2.495 18.44,2.613C18.538,2.73 18.588,2.848 18.637,3.013C18.662,3.154 18.686,3.342 18.686,3.507V5.013H18.194V3.601C18.194,3.436 18.194,3.295 18.169,3.177C18.169,3.06 18.095,2.966 18.046,2.895C17.997,2.824 17.923,2.777 17.824,2.73C17.726,2.707 17.628,2.683 17.48,2.683C17.332,2.683 17.381,2.683 17.308,2.683C17.258,2.683 17.184,2.683 17.135,2.683C17.086,2.683 17.037,2.683 16.987,2.683C16.938,2.683 16.914,2.683 16.889,2.683V4.966H16.397V2.354V2.401Z" id="path_18"/><path fill="#000000" d="M20.163,4.66C20.361,4.66 20.533,4.636 20.631,4.589C20.73,4.542 20.779,4.448 20.779,4.33C20.779,4.213 20.73,4.119 20.631,4.048C20.533,3.977 20.385,3.907 20.139,3.813C20.04,3.766 19.917,3.719 19.819,3.695C19.72,3.648 19.622,3.601 19.573,3.554C19.499,3.507 19.449,3.436 19.4,3.342C19.351,3.248 19.326,3.154 19.326,3.036C19.326,2.801 19.425,2.613 19.597,2.471C19.77,2.33 20.04,2.26 20.36,2.26C20.681,2.26 20.508,2.26 20.607,2.26C20.681,2.26 20.754,2.26 20.828,2.283C20.902,2.283 20.951,2.307 21.001,2.33C21.05,2.354 21.099,2.354 21.124,2.377L21.025,2.801C20.976,2.777 20.878,2.754 20.779,2.707C20.656,2.683 20.533,2.66 20.36,2.66C20.188,2.66 20.09,2.683 19.991,2.73C19.893,2.777 19.843,2.871 19.843,2.989C19.843,3.107 19.843,3.107 19.868,3.154C19.868,3.201 19.917,3.248 19.966,3.271C20.016,3.319 20.065,3.342 20.139,3.366C20.213,3.389 20.287,3.436 20.41,3.46C20.533,3.507 20.656,3.554 20.779,3.601C20.878,3.648 20.976,3.695 21.05,3.766C21.124,3.836 21.173,3.907 21.222,4.001C21.271,4.095 21.271,4.189 21.271,4.33C21.271,4.589 21.173,4.777 20.976,4.895C20.779,5.013 20.508,5.083 20.139,5.083C19.77,5.083 19.696,5.083 19.548,5.013C19.4,4.966 19.302,4.942 19.253,4.919L19.351,4.495C19.4,4.495 19.499,4.542 19.622,4.589C19.745,4.636 19.917,4.66 20.114,4.66H20.163Z" id="path_19"/><path fill="#000000" d="M24.398,3.671C24.398,3.883 24.373,4.071 24.299,4.26C24.226,4.448 24.152,4.589 24.029,4.707C23.906,4.824 23.782,4.919 23.61,4.989C23.438,5.06 23.265,5.083 23.069,5.083C22.872,5.083 22.699,5.06 22.527,4.989C22.354,4.919 22.231,4.824 22.108,4.707C21.985,4.589 21.911,4.424 21.837,4.26C21.764,4.095 21.739,3.883 21.739,3.671C21.739,3.46 21.764,3.271 21.837,3.083C21.911,2.919 21.985,2.754 22.108,2.636C22.231,2.519 22.354,2.424 22.527,2.354C22.699,2.283 22.872,2.26 23.069,2.26C23.265,2.26 23.438,2.283 23.61,2.354C23.782,2.424 23.906,2.519 24.029,2.636C24.152,2.754 24.226,2.919 24.299,3.083C24.373,3.248 24.398,3.46 24.398,3.671ZM23.881,3.671C23.881,3.366 23.807,3.13 23.659,2.942C23.512,2.754 23.315,2.683 23.069,2.683C22.822,2.683 22.625,2.777 22.478,2.942C22.33,3.13 22.256,3.366 22.256,3.671C22.256,3.977 22.33,4.213 22.478,4.401C22.625,4.589 22.822,4.66 23.069,4.66C23.315,4.66 23.512,4.566 23.659,4.401C23.807,4.236 23.881,3.977 23.881,3.671Z" id="path_20"/><path fill="#000000" d="M27.377,5.013C27.278,4.754 27.18,4.472 27.057,4.166C26.934,3.836 26.835,3.507 26.737,3.178C26.638,3.531 26.54,3.86 26.417,4.166C26.294,4.495 26.195,4.778 26.097,5.013H25.654C25.481,4.66 25.333,4.26 25.161,3.789C25.014,3.342 24.841,2.848 24.718,2.307H25.26C25.284,2.472 25.333,2.636 25.383,2.825C25.432,3.013 25.481,3.201 25.531,3.389C25.58,3.578 25.654,3.766 25.703,3.931C25.752,4.095 25.826,4.26 25.875,4.401C25.924,4.236 25.998,4.072 26.048,3.883C26.097,3.695 26.171,3.531 26.22,3.342C26.269,3.154 26.318,2.966 26.368,2.801C26.417,2.636 26.466,2.448 26.491,2.307H26.909C26.934,2.472 26.983,2.636 27.032,2.801C27.081,2.966 27.131,3.154 27.18,3.342C27.229,3.531 27.303,3.719 27.352,3.883C27.402,4.072 27.475,4.236 27.525,4.401C27.574,4.26 27.648,4.119 27.697,3.931C27.746,3.766 27.82,3.578 27.869,3.389C27.919,3.201 27.992,3.013 28.042,2.825C28.091,2.636 28.14,2.448 28.165,2.307H28.682C28.534,2.825 28.386,3.319 28.239,3.789C28.091,4.26 27.919,4.66 27.746,5.013H27.303H27.377Z" id="path_21"/><path fill="#000000" d="M30.159,2.26C30.356,2.26 30.528,2.284 30.676,2.331C30.824,2.378 30.922,2.448 31.021,2.542C31.119,2.637 31.168,2.754 31.193,2.872C31.218,2.99 31.242,3.131 31.242,3.295V4.966C31.193,4.966 31.144,4.966 31.07,4.99C30.996,4.99 30.897,4.99 30.799,5.013C30.701,5.013 30.602,5.013 30.479,5.037C30.356,5.06 30.257,5.037 30.134,5.037C29.987,5.037 29.839,5.037 29.691,4.99C29.568,4.966 29.445,4.919 29.347,4.848C29.248,4.778 29.174,4.684 29.125,4.59C29.076,4.495 29.051,4.354 29.051,4.19C29.051,4.025 29.076,3.907 29.149,3.813C29.223,3.695 29.297,3.625 29.396,3.554C29.494,3.484 29.642,3.437 29.765,3.413C29.913,3.39 30.06,3.366 30.208,3.366C30.356,3.366 30.307,3.366 30.356,3.366C30.405,3.366 30.454,3.366 30.504,3.366C30.553,3.366 30.602,3.366 30.627,3.366C30.651,3.366 30.676,3.366 30.701,3.366V3.225C30.701,3.154 30.701,3.06 30.676,2.99C30.676,2.919 30.627,2.848 30.577,2.778C30.528,2.707 30.454,2.66 30.381,2.637C30.307,2.59 30.184,2.59 30.06,2.59C29.937,2.59 29.74,2.59 29.617,2.613C29.494,2.613 29.396,2.66 29.347,2.684L29.297,2.284C29.371,2.26 29.47,2.237 29.617,2.213C29.765,2.19 29.937,2.166 30.11,2.166L30.159,2.26ZM30.184,4.66C30.307,4.66 30.405,4.66 30.504,4.66C30.602,4.66 30.676,4.66 30.725,4.637V3.837C30.701,3.837 30.627,3.813 30.553,3.79C30.479,3.79 30.381,3.79 30.257,3.79C30.134,3.79 30.11,3.79 30.011,3.79C29.913,3.79 29.839,3.813 29.79,3.86C29.716,3.884 29.667,3.931 29.617,4.001C29.568,4.048 29.543,4.142 29.543,4.237C29.543,4.401 29.593,4.519 29.716,4.59C29.839,4.66 29.987,4.684 30.184,4.684V4.66Z" id="path_22"/><path fill="#000000" d="M32.055,2.401C32.178,2.377 32.326,2.354 32.522,2.307C32.719,2.283 32.941,2.26 33.187,2.26C33.433,2.26 33.606,2.283 33.753,2.354C33.901,2.424 34.024,2.495 34.098,2.613C34.197,2.73 34.246,2.848 34.295,3.013C34.32,3.154 34.344,3.342 34.344,3.507V5.013H33.852V3.601C33.852,3.436 33.852,3.295 33.827,3.177C33.827,3.06 33.753,2.966 33.704,2.895C33.655,2.824 33.581,2.777 33.483,2.73C33.384,2.707 33.286,2.683 33.138,2.683C32.99,2.683 33.04,2.683 32.966,2.683C32.892,2.683 32.842,2.683 32.793,2.683C32.744,2.683 32.695,2.683 32.646,2.683C32.596,2.683 32.572,2.683 32.547,2.683V4.966H32.055V2.354V2.401Z" id="path_23"/><path fill="#000000" d="M35.009,3.672C35.009,3.437 35.034,3.225 35.107,3.037C35.181,2.849 35.28,2.707 35.403,2.59C35.526,2.472 35.649,2.378 35.821,2.331C35.969,2.284 36.141,2.237 36.289,2.237C36.659,2.237 36.954,2.355 37.151,2.566C37.348,2.802 37.446,3.131 37.446,3.602V3.672C37.446,3.696 37.446,3.743 37.446,3.766H35.526C35.526,4.049 35.625,4.26 35.772,4.402C35.92,4.543 36.141,4.613 36.462,4.613C36.782,4.613 36.782,4.613 36.905,4.566C37.028,4.543 37.126,4.519 37.176,4.472L37.249,4.872C37.2,4.896 37.077,4.943 36.929,4.966C36.782,4.99 36.609,5.013 36.412,5.013C36.215,5.013 35.945,4.966 35.772,4.896C35.6,4.825 35.452,4.731 35.329,4.613C35.206,4.496 35.132,4.331 35.083,4.166C35.034,4.002 35.009,3.813 35.009,3.602V3.672ZM36.954,3.413C36.954,3.202 36.905,3.013 36.782,2.872C36.659,2.731 36.511,2.66 36.289,2.66C36.068,2.66 36.068,2.66 35.994,2.731C35.895,2.778 35.821,2.825 35.772,2.896C35.723,2.966 35.674,3.037 35.625,3.131C35.6,3.225 35.575,3.319 35.551,3.413H36.954Z" id="path_24"/><path fill="#000000" d="M41.952,3.672C41.952,3.884 41.927,4.072 41.878,4.237C41.829,4.402 41.73,4.566 41.632,4.684C41.533,4.802 41.386,4.896 41.238,4.966C41.09,5.037 40.893,5.06 40.696,5.06C40.499,5.06 40.401,5.06 40.278,4.99C40.154,4.943 40.056,4.919 40.007,4.872V5.955H39.514V2.378C39.638,2.355 39.785,2.331 39.958,2.284C40.13,2.26 40.352,2.237 40.573,2.237C40.795,2.237 40.992,2.26 41.164,2.331C41.336,2.402 41.484,2.496 41.607,2.613C41.73,2.731 41.829,2.872 41.903,3.06C41.976,3.249 42.001,3.437 42.001,3.649L41.952,3.672ZM41.41,3.672C41.41,3.366 41.336,3.108 41.164,2.943C40.992,2.778 40.795,2.684 40.524,2.684C40.253,2.684 40.253,2.684 40.179,2.684C40.105,2.684 40.031,2.684 39.982,2.731V4.425C40.031,4.472 40.13,4.519 40.253,4.566C40.376,4.613 40.499,4.637 40.622,4.637C40.745,4.637 40.893,4.613 40.992,4.566C41.09,4.519 41.188,4.449 41.238,4.355C41.312,4.26 41.361,4.166 41.386,4.049C41.41,3.931 41.435,3.79 41.435,3.672H41.41Z" id="path_25"/><path fill="#000000" d="M43.724,2.26C43.773,2.26 43.822,2.26 43.871,2.26C43.921,2.26 43.995,2.26 44.044,2.26C44.093,2.26 44.142,2.26 44.191,2.284C44.241,2.284 44.265,2.284 44.29,2.284L44.191,2.707C44.142,2.707 44.093,2.684 43.995,2.66C43.896,2.637 43.773,2.637 43.65,2.637C43.527,2.637 43.453,2.637 43.379,2.66C43.306,2.684 43.232,2.684 43.207,2.707V4.966H42.715V2.378C42.838,2.331 42.986,2.307 43.158,2.26C43.33,2.213 43.527,2.213 43.749,2.213L43.724,2.26Z" id="path_26"/><path fill="#000000" d="M46.777,2.684C46.703,2.754 46.605,2.872 46.482,3.013C46.359,3.154 46.236,3.319 46.088,3.484C45.94,3.648 45.792,3.836 45.669,4.048C45.546,4.26 45.399,4.425 45.3,4.613H46.851V5.013H44.709V4.684C44.808,4.542 44.906,4.354 45.029,4.189C45.152,4.001 45.3,3.813 45.423,3.648C45.546,3.484 45.694,3.295 45.842,3.131C45.965,2.966 46.088,2.825 46.186,2.731H44.783V2.331H46.802V2.684H46.777Z" id="path_27"/><path fill="#000000" d="M47.27,3.672C47.27,3.437 47.294,3.225 47.368,3.037C47.442,2.849 47.54,2.707 47.664,2.59C47.787,2.472 47.91,2.378 48.082,2.331C48.23,2.284 48.402,2.237 48.55,2.237C48.919,2.237 49.215,2.355 49.411,2.566C49.608,2.802 49.707,3.131 49.707,3.602V3.672C49.707,3.696 49.707,3.743 49.707,3.766H47.787C47.787,4.049 47.885,4.26 48.033,4.402C48.181,4.543 48.402,4.613 48.722,4.613C49.042,4.613 49.042,4.613 49.165,4.566C49.288,4.543 49.387,4.519 49.436,4.472L49.51,4.872C49.461,4.896 49.338,4.943 49.19,4.966C49.042,4.99 48.87,5.013 48.673,5.013C48.476,5.013 48.205,4.966 48.033,4.896C47.86,4.825 47.713,4.731 47.59,4.613C47.466,4.496 47.393,4.331 47.343,4.166C47.294,4.002 47.27,3.813 47.27,3.602V3.672ZM49.19,3.413C49.19,3.202 49.141,3.013 49.018,2.872C48.894,2.731 48.747,2.66 48.525,2.66C48.304,2.66 48.304,2.66 48.23,2.731C48.131,2.778 48.057,2.825 48.008,2.896C47.959,2.966 47.91,3.037 47.86,3.131C47.836,3.225 47.811,3.319 47.787,3.413H49.19Z" id="path_28"/><path fill="#000000" d="M52.292,2.684C52.218,2.754 52.12,2.872 51.997,3.013C51.874,3.154 51.75,3.319 51.603,3.484C51.455,3.648 51.307,3.836 51.184,4.048C51.061,4.26 50.913,4.425 50.815,4.613H52.366V5.013H50.224V4.684C50.322,4.542 50.421,4.354 50.544,4.189C50.667,4.001 50.815,3.813 50.938,3.648C51.061,3.484 51.209,3.295 51.356,3.131C51.48,2.966 51.603,2.825 51.701,2.731H50.298V2.331H52.317V2.684H52.292Z" id="path_29"/><path fill="#000000" d="M14.674,11.765C14.427,11.765 14.206,11.718 14.033,11.648C13.861,11.577 13.713,11.483 13.59,11.342C13.467,11.224 13.393,11.059 13.344,10.895C13.295,10.73 13.27,10.542 13.27,10.33V8.071H13.787V10.259C13.787,10.612 13.861,10.871 14.033,11.036C14.206,11.2 14.427,11.271 14.674,11.271C14.92,11.271 14.92,11.271 15.043,11.2C15.141,11.153 15.24,11.106 15.338,11.012C15.412,10.918 15.486,10.824 15.51,10.683C15.56,10.565 15.584,10.401 15.584,10.212V8.024H16.101V10.283C16.101,10.495 16.077,10.659 16.028,10.847C15.978,11.036 15.88,11.177 15.757,11.295C15.634,11.412 15.486,11.53 15.314,11.601C15.141,11.671 14.92,11.718 14.674,11.718V11.765Z" id="path_30"/><path fill="#000000" d="M16.963,9.059C17.086,9.035 17.234,9.012 17.431,8.965C17.628,8.941 17.849,8.918 18.096,8.918C18.342,8.918 18.514,8.941 18.662,9.012C18.809,9.083 18.933,9.153 19.006,9.271C19.105,9.388 19.154,9.506 19.203,9.671C19.228,9.812 19.253,10 19.253,10.165V11.671H18.76V10.259C18.76,10.094 18.76,9.953 18.736,9.835C18.736,9.718 18.662,9.624 18.612,9.553C18.563,9.483 18.489,9.435 18.391,9.388C18.292,9.365 18.194,9.341 18.046,9.341C17.899,9.341 17.948,9.341 17.874,9.341C17.825,9.341 17.751,9.341 17.702,9.341C17.652,9.341 17.603,9.341 17.554,9.341C17.505,9.341 17.48,9.341 17.455,9.341V11.624H16.963V9.012V9.059Z" id="path_31"/><path fill="#000000" d="M20.287,8.494C20.188,8.494 20.114,8.47 20.065,8.4C19.991,8.353 19.967,8.259 19.967,8.164C19.967,8.07 19.991,8 20.065,7.929C20.139,7.882 20.213,7.835 20.287,7.835C20.36,7.835 20.459,7.859 20.508,7.929C20.582,7.976 20.607,8.07 20.607,8.164C20.607,8.259 20.582,8.329 20.508,8.4C20.434,8.447 20.36,8.494 20.287,8.494ZM20.533,11.694H20.041V9.011H20.533V11.694Z" id="path_32"/><path fill="#000000" d="M21.247,10.353C21.247,10.118 21.271,9.906 21.345,9.718C21.419,9.53 21.518,9.388 21.641,9.271C21.764,9.153 21.887,9.059 22.059,9.012C22.207,8.965 22.379,8.918 22.527,8.918C22.896,8.918 23.192,9.035 23.389,9.247C23.586,9.483 23.684,9.812 23.684,10.283V10.353C23.684,10.377 23.684,10.424 23.684,10.447H21.764C21.764,10.73 21.862,10.941 22.01,11.083C22.158,11.224 22.379,11.294 22.699,11.294C23.019,11.294 23.019,11.294 23.142,11.247C23.266,11.224 23.364,11.2 23.413,11.153L23.487,11.553C23.438,11.6 23.364,11.647 23.315,11.694C23.266,11.741 23.192,11.788 23.142,11.859C23.093,11.906 23.044,11.977 23.019,12C22.995,12.024 22.97,12.094 22.97,12.118C22.97,12.165 22.97,12.212 23.044,12.236C23.093,12.236 23.142,12.259 23.192,12.259C23.241,12.259 23.266,12.259 23.315,12.259C23.364,12.259 23.389,12.259 23.413,12.259L23.463,12.565C23.413,12.565 23.364,12.612 23.29,12.612C23.216,12.612 23.167,12.612 23.093,12.612C22.921,12.612 22.773,12.588 22.65,12.518C22.552,12.447 22.502,12.353 22.502,12.212C22.502,12.071 22.527,12.047 22.601,11.953C22.65,11.859 22.749,11.765 22.847,11.694C22.823,11.694 22.798,11.694 22.749,11.694C22.724,11.694 22.699,11.694 22.65,11.694C22.404,11.694 22.182,11.647 22.01,11.577C21.838,11.506 21.69,11.412 21.567,11.294C21.444,11.177 21.37,11.012 21.321,10.847C21.271,10.682 21.247,10.494 21.247,10.283V10.353ZM23.192,10.071C23.192,9.859 23.142,9.671 23.019,9.53C22.896,9.388 22.749,9.318 22.527,9.318C22.306,9.318 22.306,9.318 22.232,9.388C22.133,9.435 22.059,9.483 22.01,9.553C21.961,9.624 21.912,9.694 21.862,9.788C21.838,9.883 21.813,9.977 21.788,10.071H23.192Z" id="path_33"/><path fill="#000000" d="M25.999,11.694V8.118H28.288V8.541H26.515V9.6H28.091V10.024H26.515V11.271H28.411V11.694H25.974H25.999Z" id="path_34"/><path fill="#000000" d="M31.193,11.601C31.07,11.624 30.922,11.648 30.725,11.695C30.528,11.718 30.307,11.742 30.061,11.742C29.815,11.742 29.667,11.718 29.519,11.648C29.371,11.577 29.248,11.506 29.15,11.389C29.051,11.271 29.002,11.153 28.953,10.989C28.904,10.847 28.904,10.683 28.904,10.495V8.989H29.396V10.401C29.396,10.73 29.445,10.965 29.568,11.106C29.667,11.248 29.864,11.318 30.11,11.318C30.356,11.318 30.208,11.318 30.282,11.318C30.331,11.318 30.405,11.318 30.455,11.318C30.504,11.318 30.553,11.318 30.602,11.318C30.652,11.318 30.676,11.318 30.701,11.318V9.036H31.193V11.648V11.601Z" id="path_35"/><path fill="#000000" d="M33.113,8.941C33.162,8.941 33.212,8.941 33.261,8.941C33.31,8.941 33.384,8.941 33.433,8.941C33.482,8.941 33.532,8.941 33.581,8.965C33.63,8.965 33.654,8.965 33.679,8.965L33.581,9.388C33.532,9.388 33.482,9.365 33.384,9.341C33.285,9.318 33.162,9.318 33.039,9.318C32.916,9.318 32.842,9.318 32.769,9.341C32.695,9.365 32.621,9.365 32.596,9.388V11.647H32.104V9.059C32.227,9.012 32.375,8.988 32.547,8.941C32.719,8.894 32.916,8.894 33.138,8.894L33.113,8.941Z" id="path_36"/><path fill="#000000" d="M36.659,10.33C36.659,10.541 36.634,10.73 36.56,10.918C36.486,11.106 36.413,11.247 36.29,11.365C36.166,11.483 36.043,11.577 35.871,11.647C35.699,11.718 35.526,11.741 35.329,11.741C35.132,11.741 34.96,11.718 34.788,11.647C34.615,11.577 34.492,11.483 34.369,11.365C34.246,11.247 34.172,11.083 34.098,10.918C34.025,10.753 34,10.541 34,10.33C34,10.118 34.025,9.93 34.098,9.741C34.172,9.577 34.246,9.412 34.369,9.294C34.492,9.177 34.615,9.083 34.788,9.012C34.96,8.941 35.132,8.918 35.329,8.918C35.526,8.918 35.699,8.941 35.871,9.012C36.043,9.083 36.166,9.177 36.29,9.294C36.413,9.412 36.486,9.577 36.56,9.741C36.634,9.906 36.659,10.118 36.659,10.33ZM36.117,10.33C36.117,10.024 36.043,9.788 35.896,9.6C35.748,9.412 35.551,9.341 35.305,9.341C35.058,9.341 34.862,9.435 34.714,9.6C34.566,9.788 34.492,10.024 34.492,10.33C34.492,10.635 34.566,10.871 34.714,11.059C34.862,11.247 35.058,11.318 35.305,11.318C35.551,11.318 35.748,11.224 35.896,11.059C36.043,10.894 36.117,10.635 36.117,10.33Z" id="path_37"/><path fill="#000000" d="M39.859,10.353C39.859,10.565 39.835,10.753 39.785,10.918C39.736,11.083 39.638,11.247 39.539,11.365C39.441,11.483 39.293,11.577 39.145,11.647C38.998,11.718 38.801,11.741 38.604,11.741C38.407,11.741 38.308,11.741 38.185,11.671C38.062,11.624 37.964,11.6 37.914,11.553V12.635H37.422V9.059C37.545,9.035 37.693,9.012 37.865,8.965C38.037,8.941 38.259,8.918 38.481,8.918C38.702,8.918 38.899,8.941 39.071,9.012C39.244,9.083 39.392,9.177 39.515,9.294C39.638,9.412 39.736,9.553 39.81,9.741C39.884,9.93 39.909,10.118 39.909,10.33L39.859,10.353ZM39.342,10.353C39.342,10.047 39.269,9.788 39.096,9.624C38.924,9.459 38.727,9.365 38.456,9.365C38.185,9.365 38.185,9.365 38.111,9.365C38.037,9.365 37.964,9.365 37.914,9.412V11.106C37.964,11.153 38.062,11.2 38.185,11.247C38.308,11.294 38.431,11.318 38.555,11.318C38.678,11.318 38.825,11.294 38.924,11.247C39.022,11.2 39.121,11.13 39.17,11.035C39.244,10.941 39.293,10.847 39.318,10.73C39.342,10.612 39.367,10.471 39.367,10.353H39.342Z" id="path_38"/><path fill="#000000" d="M40.401,10.353C40.401,10.118 40.426,9.906 40.5,9.718C40.574,9.53 40.672,9.388 40.795,9.271C40.918,9.153 41.041,9.059 41.214,9.012C41.361,8.965 41.534,8.918 41.681,8.918C42.051,8.918 42.346,9.035 42.543,9.247C42.74,9.483 42.839,9.812 42.839,10.283V10.353C42.839,10.377 42.839,10.424 42.839,10.447H40.918C40.918,10.73 41.017,10.941 41.164,11.083C41.312,11.224 41.534,11.294 41.854,11.294C42.174,11.294 42.174,11.294 42.297,11.247C42.42,11.224 42.518,11.2 42.568,11.153L42.641,11.553C42.592,11.577 42.469,11.624 42.321,11.647C42.174,11.671 42.001,11.694 41.804,11.694C41.607,11.694 41.337,11.647 41.164,11.577C40.992,11.506 40.844,11.412 40.721,11.294C40.598,11.177 40.524,11.012 40.475,10.847C40.426,10.682 40.401,10.494 40.401,10.283V10.353ZM42.321,10.071C42.321,9.859 42.272,9.671 42.149,9.53C42.026,9.388 41.878,9.318 41.657,9.318C41.435,9.318 41.435,9.318 41.361,9.388C41.263,9.435 41.189,9.483 41.14,9.553C41.09,9.624 41.041,9.694 40.992,9.788C40.967,9.883 40.943,9.977 40.918,10.071H42.321Z" id="path_39"/><path fill="#000000" d="M43.134,12.658C43.084,12.658 43.035,12.658 42.961,12.658C42.888,12.658 42.838,12.635 42.789,12.611L42.863,12.212C42.888,12.212 42.937,12.212 42.986,12.235C43.035,12.235 43.084,12.235 43.109,12.235C43.281,12.235 43.404,12.188 43.478,12.094C43.552,12 43.601,11.835 43.601,11.647V9.011H44.093V11.647C44.093,12 44.019,12.259 43.847,12.423C43.675,12.588 43.453,12.682 43.134,12.682V12.658ZM43.847,8.494C43.749,8.494 43.675,8.47 43.626,8.4C43.552,8.353 43.527,8.259 43.527,8.164C43.527,8.07 43.552,8 43.626,7.929C43.7,7.882 43.773,7.835 43.847,7.835C43.921,7.835 44.019,7.859 44.069,7.929C44.143,7.976 44.167,8.07 44.167,8.164C44.167,8.259 44.143,8.329 44.069,8.4C43.995,8.447 43.921,8.494 43.847,8.494Z" id="path_40"/><path fill="#000000" d="M45.669,11.341C45.866,11.341 46.039,11.318 46.137,11.271C46.236,11.224 46.285,11.13 46.285,11.012C46.285,10.894 46.236,10.8 46.137,10.73C46.039,10.659 45.891,10.589 45.645,10.494C45.546,10.447 45.423,10.4 45.325,10.377C45.226,10.33 45.128,10.283 45.079,10.236C45.005,10.189 44.956,10.118 44.906,10.024C44.857,9.93 44.832,9.836 44.832,9.718C44.832,9.483 44.931,9.294 45.103,9.153C45.276,9.012 45.546,8.941 45.866,8.941C46.187,8.941 46.014,8.941 46.113,8.941C46.187,8.941 46.26,8.941 46.334,8.965C46.408,8.965 46.457,8.988 46.507,9.012C46.556,9.036 46.605,9.036 46.63,9.059L46.531,9.483C46.482,9.459 46.383,9.436 46.285,9.388C46.162,9.365 46.039,9.341 45.866,9.341C45.694,9.341 45.596,9.365 45.497,9.412C45.399,9.459 45.349,9.553 45.349,9.671C45.349,9.788 45.349,9.788 45.374,9.836C45.374,9.883 45.423,9.93 45.472,9.953C45.522,10 45.571,10.024 45.645,10.047C45.719,10.071 45.793,10.118 45.916,10.141C46.039,10.189 46.162,10.236 46.285,10.283C46.383,10.33 46.482,10.377 46.556,10.447C46.63,10.518 46.679,10.589 46.728,10.683C46.777,10.777 46.777,10.871 46.777,11.012C46.777,11.271 46.679,11.459 46.482,11.577C46.285,11.694 46.014,11.765 45.645,11.765C45.276,11.765 45.202,11.765 45.054,11.694C44.906,11.647 44.808,11.624 44.758,11.6L44.857,11.177C44.906,11.177 45.005,11.224 45.128,11.271C45.251,11.318 45.423,11.341 45.62,11.341H45.669Z" id="path_41"/><path fill="#000000" d="M48.476,10.212C48.575,10.282 48.698,10.4 48.821,10.518C48.944,10.635 49.067,10.753 49.19,10.894C49.313,11.035 49.412,11.176 49.535,11.318C49.633,11.459 49.732,11.576 49.806,11.718H49.215C49.141,11.6 49.042,11.482 48.944,11.341C48.845,11.224 48.747,11.106 48.624,10.988C48.525,10.87 48.402,10.776 48.304,10.659C48.181,10.565 48.082,10.47 47.984,10.424V11.718H47.491V7.788L47.984,7.694V10.141C48.082,10.047 48.156,9.976 48.279,9.859C48.378,9.765 48.476,9.647 48.599,9.553C48.698,9.459 48.796,9.341 48.895,9.247C48.993,9.153 49.067,9.059 49.116,8.988H49.707C49.633,9.082 49.535,9.176 49.436,9.271C49.338,9.365 49.239,9.482 49.141,9.576C49.042,9.671 48.919,9.788 48.821,9.882C48.722,9.976 48.624,10.094 48.525,10.188L48.476,10.212Z" id="path_42"/><path fill="#000000" d="M51.258,8.917C51.455,8.917 51.628,8.941 51.775,8.988C51.923,9.035 52.021,9.106 52.12,9.2C52.194,9.294 52.268,9.411 52.292,9.529C52.317,9.647 52.341,9.788 52.341,9.953V11.623C52.292,11.647 52.243,11.694 52.194,11.741C52.145,11.788 52.095,11.835 52.046,11.882C51.997,11.929 51.948,11.976 51.923,12.023C51.898,12.07 51.874,12.117 51.874,12.164C51.874,12.259 51.948,12.306 52.095,12.306C52.243,12.306 52.145,12.306 52.194,12.306C52.243,12.306 52.268,12.306 52.317,12.282L52.366,12.588C52.317,12.588 52.268,12.611 52.218,12.635C52.145,12.635 52.095,12.635 52.021,12.635C51.825,12.635 51.677,12.588 51.578,12.517C51.48,12.447 51.431,12.353 51.431,12.235C51.431,12.117 51.455,12.07 51.505,12C51.554,11.929 51.603,11.858 51.677,11.788C51.677,11.788 51.726,11.741 51.751,11.717C51.775,11.717 51.8,11.67 51.825,11.67C51.751,11.67 51.652,11.67 51.578,11.67C51.48,11.67 51.406,11.67 51.307,11.67C51.16,11.67 51.012,11.67 50.864,11.623C50.741,11.6 50.618,11.553 50.52,11.482C50.421,11.411 50.347,11.317 50.298,11.223C50.249,11.106 50.224,10.988 50.224,10.823C50.224,10.658 50.249,10.541 50.323,10.447C50.397,10.329 50.47,10.259 50.569,10.188C50.667,10.117 50.815,10.07 50.938,10.047C51.086,10.023 51.234,10 51.381,10C51.529,10 51.48,10 51.529,10C51.578,10 51.628,10 51.677,10C51.726,10 51.775,10 51.8,10C51.825,10 51.849,10 51.874,10V9.859C51.874,9.788 51.874,9.694 51.849,9.623C51.849,9.553 51.8,9.482 51.751,9.411C51.701,9.341 51.628,9.294 51.554,9.27C51.48,9.223 51.357,9.223 51.234,9.223C51.111,9.223 50.914,9.223 50.791,9.247C50.667,9.247 50.569,9.294 50.52,9.317L50.47,8.917C50.544,8.894 50.643,8.87 50.791,8.847C50.938,8.823 51.111,8.8 51.283,8.8L51.258,8.917ZM51.307,11.341C51.431,11.341 51.529,11.341 51.628,11.341C51.726,11.341 51.8,11.341 51.849,11.317V10.517C51.825,10.517 51.751,10.494 51.677,10.47C51.603,10.47 51.505,10.47 51.381,10.47C51.258,10.47 51.234,10.47 51.135,10.47C51.037,10.47 50.963,10.494 50.914,10.541C50.84,10.564 50.791,10.611 50.741,10.682C50.692,10.729 50.667,10.823 50.667,10.917C50.667,11.082 50.717,11.2 50.84,11.27C50.963,11.341 51.111,11.364 51.307,11.364V11.341Z" id="path_43"/><path fill="#000000" d="M2.831,18.354C2.684,18.143 2.536,17.907 2.363,17.649C2.191,17.39 2.019,17.131 1.846,16.896C1.674,16.637 1.477,16.402 1.305,16.143C1.108,15.907 0.936,15.696 0.763,15.484V18.354H0V14.354H0.615C0.788,14.519 0.96,14.707 1.133,14.919C1.329,15.131 1.502,15.366 1.699,15.601C1.896,15.837 2.068,16.072 2.24,16.331C2.413,16.566 2.56,16.802 2.708,17.013V14.354H3.471V18.354H2.831Z" id="path_44"/><path fill="#000000" d="M4.161,16.849C4.161,16.59 4.21,16.355 4.284,16.143C4.358,15.931 4.481,15.767 4.604,15.649C4.752,15.508 4.899,15.414 5.072,15.343C5.244,15.273 5.441,15.249 5.613,15.249C6.056,15.249 6.401,15.367 6.623,15.625C6.869,15.884 6.992,16.261 6.992,16.778C6.992,17.296 6.992,16.849 6.992,16.92C6.992,16.967 6.992,17.014 6.992,17.061H4.899C4.899,17.296 4.998,17.484 5.17,17.625C5.318,17.767 5.564,17.814 5.859,17.814C6.155,17.814 6.204,17.814 6.352,17.767C6.5,17.743 6.623,17.696 6.697,17.673L6.795,18.237C6.746,18.237 6.697,18.284 6.623,18.308C6.549,18.308 6.475,18.355 6.376,18.355C6.278,18.355 6.18,18.378 6.081,18.402C5.983,18.402 5.859,18.402 5.761,18.402C5.49,18.402 5.244,18.355 5.022,18.284C4.825,18.214 4.653,18.096 4.505,17.955C4.382,17.814 4.284,17.649 4.21,17.461C4.136,17.273 4.111,17.061 4.111,16.826L4.161,16.849ZM6.278,16.543C6.278,16.449 6.278,16.355 6.229,16.261C6.204,16.167 6.155,16.096 6.106,16.025C6.056,15.955 5.983,15.908 5.909,15.884C5.835,15.837 5.736,15.837 5.638,15.837C5.539,15.837 5.416,15.837 5.342,15.908C5.269,15.955 5.195,16.002 5.121,16.073C5.072,16.143 5.022,16.214 4.973,16.308C4.924,16.402 4.924,16.473 4.899,16.567H6.253L6.278,16.543Z" id="path_45"/><path fill="#000000" d="M8.888,16.26L9.552,15.343H10.316L9.257,16.802C9.478,17.06 9.7,17.343 9.897,17.602C10.094,17.86 10.266,18.119 10.389,18.378H9.602C9.552,18.307 9.528,18.237 9.454,18.143C9.405,18.049 9.331,17.978 9.257,17.884C9.183,17.79 9.134,17.696 9.06,17.602C8.986,17.507 8.912,17.437 8.838,17.343C8.691,17.507 8.568,17.672 8.42,17.86C8.272,18.049 8.174,18.213 8.075,18.378H7.337C7.386,18.26 7.46,18.143 7.558,18.002C7.657,17.884 7.73,17.743 7.829,17.602C7.927,17.46 8.026,17.343 8.149,17.202C8.247,17.06 8.371,16.943 8.469,16.825L7.386,15.343H8.198L8.863,16.26H8.888Z" id="path_46"/><path fill="#000000" d="M11.005,14.519L11.743,14.402V15.319H12.876V15.908H11.743V17.131C11.743,17.366 11.793,17.555 11.867,17.649C11.941,17.743 12.088,17.813 12.285,17.813C12.482,17.813 12.531,17.813 12.63,17.766C12.728,17.743 12.802,17.719 12.876,17.696L12.999,18.26C12.925,18.284 12.802,18.331 12.655,18.378C12.507,18.425 12.359,18.425 12.162,18.425C11.965,18.425 11.744,18.402 11.596,18.331C11.448,18.26 11.325,18.19 11.226,18.072C11.128,17.955 11.079,17.837 11.03,17.672C11.005,17.508 10.98,17.343 10.98,17.131V14.519H11.005Z" id="path_47"/><path fill="#000000" d="M15.658,14.896C15.215,14.896 14.895,15.014 14.673,15.273C14.452,15.531 14.328,15.884 14.328,16.331C14.328,16.778 14.353,16.755 14.402,16.92C14.452,17.108 14.526,17.249 14.649,17.39C14.747,17.508 14.895,17.625 15.042,17.696C15.19,17.767 15.387,17.814 15.609,17.814C15.83,17.814 15.855,17.814 15.953,17.814C16.052,17.814 16.126,17.814 16.175,17.767V16.331H16.938V18.261C16.84,18.308 16.667,18.331 16.397,18.378C16.15,18.425 15.855,18.449 15.535,18.449C15.215,18.449 14.944,18.402 14.698,18.308C14.452,18.214 14.23,18.073 14.058,17.908C13.885,17.72 13.738,17.508 13.639,17.249C13.541,16.99 13.491,16.684 13.491,16.355C13.491,16.025 13.541,15.72 13.664,15.461C13.762,15.202 13.91,14.99 14.107,14.802C14.304,14.614 14.501,14.496 14.772,14.402C15.042,14.308 15.289,14.261 15.559,14.261C15.83,14.261 15.929,14.261 16.076,14.308C16.224,14.331 16.347,14.355 16.47,14.402C16.569,14.425 16.667,14.472 16.741,14.496C16.815,14.52 16.864,14.567 16.889,14.567L16.667,15.155C16.544,15.084 16.397,15.037 16.224,14.967C16.052,14.896 15.855,14.896 15.658,14.896Z" id="path_48"/><path fill="#000000" d="M17.701,16.849C17.701,16.59 17.751,16.355 17.825,16.143C17.898,15.931 18.021,15.767 18.145,15.649C18.292,15.508 18.44,15.414 18.612,15.343C18.785,15.273 18.982,15.249 19.154,15.249C19.597,15.249 19.942,15.367 20.163,15.625C20.41,15.884 20.533,16.261 20.533,16.778C20.533,17.296 20.533,16.849 20.533,16.92C20.533,16.967 20.533,17.014 20.533,17.061H18.44C18.44,17.296 18.538,17.484 18.711,17.625C18.859,17.767 19.105,17.814 19.4,17.814C19.696,17.814 19.745,17.814 19.893,17.767C20.04,17.743 20.163,17.696 20.237,17.673L20.336,18.237C20.287,18.237 20.237,18.284 20.163,18.308C20.09,18.308 20.016,18.355 19.917,18.355C19.819,18.355 19.72,18.378 19.622,18.402C19.523,18.402 19.4,18.402 19.302,18.402C19.031,18.402 18.785,18.355 18.563,18.284C18.366,18.214 18.194,18.096 18.046,17.955C17.923,17.814 17.825,17.649 17.751,17.461C17.677,17.273 17.652,17.061 17.652,16.826L17.701,16.849ZM19.819,16.543C19.819,16.449 19.819,16.355 19.77,16.261C19.745,16.167 19.696,16.096 19.646,16.025C19.597,15.955 19.523,15.908 19.449,15.884C19.376,15.837 19.277,15.837 19.179,15.837C19.08,15.837 18.957,15.837 18.883,15.908C18.809,15.955 18.736,16.002 18.662,16.073C18.612,16.143 18.563,16.214 18.514,16.308C18.465,16.402 18.465,16.473 18.44,16.567H19.794L19.819,16.543Z" id="path_49"/><path fill="#000000" d="M21.321,15.437C21.468,15.39 21.641,15.367 21.862,15.32C22.084,15.296 22.33,15.273 22.625,15.273C22.921,15.273 23.093,15.296 23.266,15.367C23.438,15.437 23.586,15.531 23.684,15.649C23.783,15.767 23.857,15.908 23.906,16.096C23.955,16.261 23.98,16.449 23.98,16.661V18.355H23.241V16.755C23.241,16.59 23.241,16.449 23.216,16.331C23.216,16.214 23.167,16.12 23.118,16.049C23.069,15.979 22.995,15.932 22.921,15.884C22.823,15.861 22.724,15.837 22.601,15.837C22.478,15.837 22.404,15.837 22.306,15.837C22.207,15.837 22.133,15.837 22.084,15.861V18.308H21.345V15.39L21.321,15.437Z" id="path_50"/><path fill="#000000" d="M24.694,16.849C24.694,16.59 24.743,16.355 24.817,16.143C24.89,15.931 25.014,15.767 25.137,15.649C25.284,15.508 25.432,15.414 25.604,15.343C25.777,15.273 25.974,15.249 26.146,15.249C26.589,15.249 26.934,15.367 27.156,15.625C27.402,15.884 27.525,16.261 27.525,16.778C27.525,17.296 27.525,16.849 27.525,16.92C27.525,16.967 27.525,17.014 27.525,17.061H25.432C25.432,17.296 25.531,17.484 25.703,17.625C25.875,17.767 26.097,17.814 26.392,17.814C26.688,17.814 26.737,17.814 26.885,17.767C27.032,17.743 27.156,17.696 27.229,17.673L27.328,18.237C27.279,18.237 27.229,18.284 27.156,18.308C27.082,18.308 27.008,18.355 26.909,18.355C26.811,18.355 26.712,18.378 26.614,18.402C26.515,18.426 26.392,18.402 26.294,18.402C26.023,18.402 25.777,18.355 25.555,18.284C25.334,18.214 25.186,18.096 25.038,17.955C24.915,17.814 24.817,17.649 24.743,17.461C24.669,17.273 24.644,17.061 24.644,16.826L24.694,16.849ZM26.811,16.543C26.811,16.449 26.811,16.355 26.762,16.261C26.737,16.167 26.688,16.096 26.639,16.025C26.589,15.955 26.515,15.908 26.441,15.884C26.368,15.837 26.269,15.837 26.171,15.837C26.072,15.837 25.949,15.837 25.875,15.908C25.801,15.955 25.728,16.002 25.654,16.073C25.58,16.143 25.555,16.214 25.506,16.308C25.457,16.402 25.457,16.473 25.432,16.567H26.786L26.811,16.543Z" id="path_51"/><path fill="#000000" d="M30.11,15.954C30.061,15.954 29.962,15.907 29.864,15.883C29.765,15.883 29.642,15.86 29.494,15.86C29.347,15.86 29.322,15.86 29.248,15.86C29.174,15.86 29.101,15.883 29.051,15.907V18.33H28.313V15.436C28.46,15.389 28.633,15.342 28.854,15.295C29.076,15.248 29.297,15.225 29.568,15.225C29.839,15.225 29.667,15.225 29.741,15.225C29.814,15.225 29.864,15.225 29.938,15.225C30.011,15.225 30.061,15.225 30.135,15.248C30.184,15.248 30.233,15.272 30.282,15.295L30.159,15.883L30.11,15.954Z" id="path_52"/><path fill="#000000" d="M31.809,15.248C32.055,15.248 32.252,15.272 32.424,15.342C32.596,15.389 32.72,15.483 32.818,15.578C32.917,15.672 32.99,15.813 33.04,15.954C33.089,16.095 33.113,16.26 33.113,16.448V18.283C32.99,18.283 32.818,18.33 32.596,18.378C32.375,18.401 32.104,18.425 31.833,18.425C31.562,18.425 31.464,18.425 31.316,18.378C31.169,18.354 31.021,18.283 30.922,18.213C30.824,18.142 30.725,18.025 30.651,17.907C30.578,17.789 30.553,17.625 30.553,17.46C30.553,17.295 30.578,17.131 30.651,17.013C30.725,16.895 30.824,16.801 30.947,16.73C31.07,16.66 31.218,16.613 31.365,16.566C31.513,16.542 31.685,16.519 31.858,16.519C32.03,16.519 32.03,16.519 32.104,16.519C32.178,16.519 32.276,16.542 32.4,16.566V16.448C32.4,16.378 32.399,16.283 32.375,16.213C32.375,16.142 32.326,16.072 32.276,16.025C32.227,15.978 32.153,15.931 32.079,15.883C32.006,15.836 31.882,15.836 31.759,15.836C31.636,15.836 31.439,15.836 31.292,15.86C31.144,15.86 31.045,15.907 30.947,15.931L30.848,15.366C30.947,15.342 31.07,15.295 31.242,15.272C31.415,15.248 31.612,15.225 31.809,15.225V15.248ZM31.882,17.86C32.104,17.86 32.276,17.86 32.4,17.836V17.06C32.35,17.06 32.301,17.06 32.227,17.036C32.153,17.036 32.055,17.036 31.981,17.036C31.907,17.036 31.809,17.036 31.735,17.036C31.661,17.036 31.587,17.06 31.513,17.107C31.439,17.131 31.39,17.178 31.341,17.248C31.292,17.319 31.292,17.366 31.292,17.46C31.292,17.625 31.341,17.742 31.464,17.813C31.562,17.883 31.71,17.907 31.907,17.907L31.882,17.86Z" id="path_53"/><path fill="#000000" d="M33.975,14.519L34.714,14.402V15.319H35.846V15.908H34.714V17.131C34.714,17.366 34.763,17.555 34.837,17.649C34.911,17.743 35.058,17.813 35.255,17.813C35.452,17.813 35.501,17.813 35.6,17.766C35.698,17.743 35.772,17.719 35.846,17.696L35.969,18.26C35.895,18.284 35.772,18.331 35.625,18.378C35.477,18.425 35.329,18.425 35.132,18.425C34.935,18.425 34.714,18.402 34.566,18.331C34.418,18.26 34.295,18.19 34.197,18.072C34.098,17.955 34.049,17.837 34,17.672C33.975,17.508 33.95,17.343 33.95,17.131V14.519H33.975Z" id="path_54"/><path fill="#000000" d="M37.372,14.449C37.372,14.59 37.323,14.684 37.249,14.755C37.151,14.825 37.052,14.872 36.929,14.872C36.806,14.872 36.708,14.825 36.609,14.755C36.511,14.684 36.486,14.566 36.486,14.449C36.486,14.331 36.535,14.213 36.609,14.119C36.708,14.049 36.806,14.002 36.929,14.002C37.052,14.002 37.151,14.049 37.249,14.119C37.348,14.19 37.372,14.307 37.372,14.449ZM37.274,18.355H36.535V15.319H37.274V18.355Z" id="path_55"/><path fill="#000000" d="M41.09,16.849C41.09,17.084 41.066,17.296 40.992,17.508C40.918,17.696 40.819,17.861 40.672,18.002C40.549,18.143 40.376,18.237 40.179,18.331C39.982,18.402 39.785,18.449 39.564,18.449C39.342,18.449 39.121,18.402 38.948,18.331C38.751,18.261 38.604,18.143 38.48,18.002C38.357,17.861 38.234,17.696 38.16,17.508C38.087,17.32 38.037,17.084 38.037,16.849C38.037,16.614 38.087,16.402 38.16,16.19C38.234,16.002 38.333,15.837 38.48,15.696C38.628,15.555 38.776,15.461 38.973,15.367C39.17,15.296 39.367,15.249 39.588,15.249C39.81,15.249 40.007,15.296 40.204,15.367C40.401,15.437 40.549,15.555 40.696,15.696C40.819,15.837 40.943,16.002 41.016,16.19C41.09,16.378 41.139,16.614 41.139,16.849H41.09ZM40.327,16.849C40.327,16.543 40.253,16.308 40.13,16.143C40.007,15.979 39.81,15.884 39.564,15.884C39.318,15.884 39.121,15.979 38.998,16.143C38.874,16.308 38.801,16.567 38.801,16.849C38.801,17.131 38.874,17.39 38.998,17.579C39.121,17.767 39.318,17.837 39.564,17.837C39.81,17.837 39.982,17.743 40.13,17.579C40.278,17.39 40.327,17.155 40.327,16.849Z" id="path_56"/><path fill="#000000" d="M41.853,15.437C42.001,15.39 42.174,15.367 42.395,15.32C42.617,15.273 42.863,15.273 43.158,15.273C43.454,15.273 43.626,15.296 43.798,15.367C43.971,15.437 44.118,15.531 44.217,15.649C44.315,15.767 44.389,15.908 44.438,16.096C44.488,16.261 44.512,16.449 44.512,16.661V18.355H43.774V16.755C43.774,16.59 43.774,16.449 43.749,16.331C43.749,16.214 43.7,16.12 43.651,16.049C43.601,15.979 43.528,15.932 43.454,15.884C43.355,15.861 43.257,15.837 43.134,15.837C43.011,15.837 42.937,15.837 42.838,15.837C42.74,15.837 42.666,15.837 42.617,15.861V18.308H41.878V15.39L41.853,15.437Z" id="path_57"/><path fill="#000000" d="M45.448,18.354V14.354H48.131V14.966H46.211V15.954H47.935V16.566H46.211V17.743H48.279V18.354H45.448Z" id="path_58"/><path fill="#000000" d="M50.667,18.448C50.372,18.448 50.126,18.402 49.929,18.331C49.732,18.26 49.559,18.143 49.412,18.001C49.289,17.86 49.165,17.696 49.116,17.507C49.042,17.319 49.018,17.107 49.018,16.872V14.354H49.781V16.802C49.781,16.99 49.781,17.131 49.855,17.272C49.904,17.39 49.953,17.507 50.027,17.578C50.101,17.649 50.199,17.719 50.298,17.766C50.396,17.813 50.52,17.813 50.667,17.813C50.815,17.813 50.913,17.813 51.036,17.766C51.135,17.719 51.234,17.672 51.307,17.578C51.381,17.507 51.455,17.39 51.48,17.272C51.529,17.154 51.554,16.99 51.554,16.802V14.354H52.317V16.872C52.317,17.107 52.292,17.319 52.218,17.507C52.144,17.696 52.046,17.86 51.923,18.001C51.8,18.143 51.627,18.26 51.406,18.331C51.184,18.402 50.938,18.448 50.667,18.448Z" id="path_59"/></svg>