<svg id="vector" xmlns="http://www.w3.org/2000/svg" width="67.0d" height="21.0d" viewBox="0 0 67.0 21.0"><path fill="#808285" d="M26.69,1.25H0.108V18.957H26.69V1.25ZM26.606,18.894H0.191V1.333H26.606V18.873V18.894Z" id="path_0"/><path fill="#000000" d="M44.183,12.28C44.037,12.301 43.912,12.343 43.85,12.363L43.933,12.863C44.017,12.843 44.1,12.822 44.225,12.801C44.35,12.801 44.475,12.78 44.621,12.78C44.767,12.78 44.808,12.78 44.892,12.822C44.954,12.843 45.017,12.884 45.058,12.947C45.1,12.988 45.121,13.051 45.142,13.113C45.142,13.176 45.162,13.238 45.162,13.322V13.426C45.079,13.426 44.996,13.384 44.912,13.384C44.829,13.384 44.767,13.384 44.704,13.384C44.558,13.384 44.412,13.384 44.287,13.426C44.162,13.447 44.037,13.509 43.933,13.572C43.829,13.634 43.746,13.718 43.683,13.822C43.621,13.926 43.6,14.051 43.6,14.217C43.6,14.384 43.621,14.509 43.683,14.613C43.746,14.717 43.808,14.822 43.912,14.884C44.017,14.947 44.121,15.009 44.246,15.03C44.371,15.051 44.517,15.072 44.683,15.072C44.933,15.072 45.142,15.072 45.329,15.03C45.517,15.009 45.662,14.967 45.767,14.947V13.322C45.767,13.155 45.767,13.03 45.704,12.884C45.662,12.759 45.6,12.634 45.517,12.551C45.433,12.468 45.329,12.384 45.183,12.343C45.037,12.301 44.871,12.259 44.662,12.259C44.454,12.259 44.329,12.259 44.183,12.301M44.329,14.467C44.246,14.405 44.183,14.301 44.183,14.155C44.183,14.009 44.183,14.009 44.225,13.967C44.267,13.926 44.308,13.884 44.371,13.842C44.433,13.822 44.496,13.801 44.558,13.78C44.621,13.78 44.704,13.78 44.767,13.78C44.829,13.78 44.912,13.78 44.975,13.78C45.037,13.78 45.079,13.78 45.121,13.801V14.488C45.017,14.488 44.871,14.509 44.683,14.509C44.496,14.509 44.392,14.488 44.308,14.426M41.642,11.009L41.017,11.114V14.988H41.642V13.759C41.725,13.822 41.829,13.905 41.933,14.009C42.038,14.113 42.121,14.217 42.225,14.322C42.308,14.426 42.413,14.551 42.475,14.655C42.558,14.78 42.621,14.884 42.683,14.988H43.392C43.329,14.863 43.246,14.738 43.163,14.613C43.079,14.467 42.975,14.342 42.871,14.197C42.767,14.051 42.663,13.926 42.538,13.801C42.433,13.676 42.308,13.572 42.225,13.488C42.413,13.301 42.6,13.093 42.788,12.884C42.975,12.676 43.163,12.488 43.329,12.28H42.6C42.538,12.343 42.475,12.426 42.413,12.509C42.329,12.593 42.246,12.697 42.163,12.78C42.079,12.884 41.996,12.968 41.892,13.072C41.808,13.176 41.725,13.259 41.642,13.343V11.009ZM38.975,14.488C38.85,14.447 38.746,14.426 38.642,14.384L38.538,14.905C38.6,14.926 38.704,14.967 38.85,15.009C38.996,15.051 39.184,15.072 39.413,15.072C39.767,15.072 40.038,15.009 40.225,14.884C40.413,14.759 40.517,14.551 40.517,14.301C40.517,14.051 40.517,14.072 40.475,13.988C40.454,13.905 40.392,13.822 40.329,13.759C40.267,13.697 40.184,13.634 40.079,13.572C39.975,13.509 39.85,13.468 39.704,13.405C39.621,13.384 39.538,13.343 39.475,13.322C39.413,13.301 39.371,13.259 39.329,13.238C39.288,13.218 39.267,13.176 39.246,13.134C39.246,13.093 39.225,13.051 39.225,13.009C39.225,12.926 39.267,12.863 39.35,12.822C39.434,12.78 39.538,12.759 39.663,12.759C39.788,12.759 39.934,12.759 40.038,12.801C40.142,12.822 40.225,12.863 40.309,12.884L40.413,12.384C40.35,12.363 40.225,12.322 40.079,12.301C39.934,12.28 39.788,12.259 39.621,12.259C39.309,12.259 39.059,12.322 38.892,12.468C38.704,12.613 38.621,12.801 38.621,13.051C38.621,13.301 38.621,13.28 38.684,13.363C38.725,13.447 38.767,13.53 38.85,13.593C38.913,13.655 38.996,13.718 39.1,13.759C39.184,13.801 39.288,13.842 39.413,13.884C39.6,13.947 39.725,14.009 39.809,14.072C39.892,14.134 39.934,14.197 39.934,14.301C39.934,14.405 39.892,14.467 39.829,14.509C39.746,14.551 39.642,14.572 39.475,14.572C39.309,14.572 39.163,14.572 39.038,14.53M38.163,14.53C38.08,14.53 38.017,14.509 37.955,14.488C37.892,14.488 37.85,14.447 37.83,14.405C37.809,14.363 37.788,14.322 37.767,14.28C37.767,14.238 37.767,14.176 37.767,14.092V11.03L37.142,11.134V14.217C37.142,14.342 37.142,14.467 37.184,14.572C37.205,14.676 37.267,14.759 37.33,14.842C37.392,14.905 37.496,14.967 37.621,15.009C37.746,15.051 37.892,15.072 38.08,15.072L38.163,14.551V14.53ZM35.767,14.301C35.642,14.467 35.496,14.53 35.288,14.53C35.08,14.53 34.934,14.447 34.809,14.301C34.705,14.134 34.642,13.926 34.642,13.655C34.642,13.384 34.705,13.176 34.809,13.03C34.934,12.884 35.08,12.801 35.288,12.801C35.496,12.801 35.642,12.884 35.767,13.03C35.871,13.176 35.934,13.405 35.934,13.655C35.934,13.905 35.871,14.134 35.767,14.301ZM36.496,13.072C36.434,12.905 36.35,12.759 36.225,12.634C36.121,12.509 35.976,12.426 35.809,12.343C35.642,12.28 35.476,12.238 35.288,12.238C35.101,12.238 34.934,12.28 34.767,12.343C34.601,12.405 34.476,12.509 34.351,12.634C34.246,12.759 34.142,12.905 34.08,13.072C34.017,13.238 33.976,13.447 33.976,13.655C33.976,13.863 34.017,14.051 34.08,14.238C34.142,14.405 34.226,14.551 34.351,14.676C34.455,14.801 34.601,14.884 34.746,14.967C34.913,15.03 35.08,15.072 35.267,15.072C35.455,15.072 35.642,15.03 35.788,14.967C35.955,14.905 36.08,14.801 36.205,14.676C36.309,14.551 36.413,14.405 36.475,14.238C36.538,14.072 36.559,13.863 36.559,13.655C36.559,13.447 36.517,13.259 36.455,13.072M32.517,11.988C32.622,11.988 32.726,12.03 32.788,12.093C32.872,12.134 32.934,12.197 32.976,12.28C33.017,12.363 33.038,12.447 33.038,12.572C33.038,12.822 32.955,12.988 32.788,13.072C32.622,13.155 32.372,13.197 32.08,13.197H31.767V11.988C31.872,11.988 32.018,11.988 32.163,11.988C32.309,11.988 32.392,11.988 32.517,12.009M31.622,11.426C31.434,11.426 31.267,11.468 31.122,11.488V14.988H31.767V13.738H32.08C32.33,13.738 32.58,13.718 32.767,13.676C32.976,13.634 33.142,13.572 33.288,13.468C33.434,13.384 33.538,13.259 33.601,13.113C33.684,12.968 33.705,12.78 33.705,12.572C33.705,12.176 33.559,11.884 33.288,11.697C33.017,11.509 32.622,11.405 32.101,11.405C31.58,11.405 31.788,11.405 31.601,11.405" id="path_1"/><path fill="#000000" d="M64.39,6.385C64.244,6.406 64.119,6.447 64.057,6.468L64.14,6.968C64.224,6.947 64.307,6.926 64.432,6.906C64.557,6.906 64.682,6.885 64.828,6.885C64.974,6.885 65.015,6.885 65.099,6.926C65.161,6.947 65.224,6.989 65.265,7.051C65.307,7.114 65.328,7.156 65.349,7.218C65.349,7.281 65.369,7.343 65.369,7.426V7.531C65.286,7.531 65.203,7.489 65.119,7.489C65.036,7.489 64.974,7.489 64.911,7.489C64.765,7.489 64.619,7.489 64.494,7.531C64.369,7.551 64.244,7.614 64.14,7.676C64.036,7.739 63.953,7.822 63.89,7.926C63.828,8.031 63.807,8.156 63.807,8.322C63.807,8.489 63.828,8.614 63.89,8.718C63.953,8.822 64.015,8.926 64.119,8.989C64.224,9.051 64.328,9.114 64.453,9.135C64.578,9.155 64.724,9.176 64.89,9.176C65.14,9.176 65.349,9.176 65.536,9.135C65.724,9.114 65.869,9.072 65.974,9.051V7.426C65.974,7.26 65.974,7.135 65.911,6.989C65.869,6.864 65.807,6.739 65.724,6.656C65.64,6.572 65.536,6.489 65.39,6.447C65.244,6.406 65.078,6.364 64.869,6.364C64.661,6.364 64.536,6.364 64.39,6.406M64.536,8.572C64.453,8.51 64.39,8.406 64.39,8.26C64.39,8.114 64.39,8.114 64.432,8.072C64.474,8.031 64.515,7.989 64.578,7.947C64.64,7.926 64.703,7.906 64.765,7.885C64.828,7.885 64.911,7.885 64.974,7.885C65.036,7.885 65.119,7.885 65.182,7.885C65.244,7.885 65.286,7.885 65.328,7.906V8.593C65.224,8.593 65.078,8.614 64.89,8.614C64.703,8.614 64.599,8.593 64.515,8.531M61.828,8.031C61.828,8.218 61.828,8.364 61.87,8.51C61.89,8.655 61.953,8.76 62.036,8.864C62.12,8.968 62.203,9.03 62.349,9.093C62.474,9.135 62.64,9.176 62.828,9.176C63.015,9.176 63.12,9.176 63.245,9.135C63.37,9.093 63.453,9.072 63.536,9.03L63.432,8.531C63.39,8.531 63.307,8.572 63.224,8.593C63.14,8.614 63.036,8.635 62.932,8.635C62.765,8.635 62.661,8.593 62.578,8.489C62.515,8.406 62.474,8.239 62.474,8.031V6.947H63.432V6.426H62.474V5.614L61.849,5.718V8.031H61.828ZM61.078,5.343C60.995,5.281 60.911,5.239 60.807,5.239C60.703,5.239 60.62,5.281 60.536,5.343C60.453,5.406 60.432,5.51 60.432,5.635C60.432,5.76 60.474,5.843 60.536,5.906C60.62,5.968 60.703,6.01 60.807,6.01C60.911,6.01 60.995,5.968 61.078,5.906C61.161,5.843 61.182,5.739 61.182,5.635C61.182,5.531 61.141,5.427 61.078,5.343ZM61.141,6.406H60.516V9.093H61.141V6.406ZM60.016,8.635C59.932,8.635 59.87,8.614 59.807,8.593C59.745,8.593 59.703,8.551 59.682,8.51C59.661,8.468 59.641,8.426 59.62,8.385C59.62,8.343 59.62,8.281 59.62,8.197V5.135L58.995,5.239V8.322C58.995,8.447 58.995,8.572 59.036,8.676C59.057,8.78 59.12,8.864 59.182,8.947C59.245,9.01 59.349,9.072 59.474,9.114C59.599,9.155 59.745,9.176 59.932,9.176L60.016,8.655V8.635ZM57.62,8.385C57.516,8.551 57.349,8.614 57.141,8.614C56.932,8.614 56.766,8.531 56.662,8.385C56.537,8.218 56.495,8.01 56.495,7.739C56.495,7.468 56.557,7.26 56.662,7.114C56.766,6.968 56.932,6.885 57.141,6.885C57.349,6.885 57.495,6.968 57.62,7.114C57.724,7.26 57.787,7.489 57.787,7.739C57.787,7.989 57.724,8.218 57.62,8.385ZM58.328,7.176C58.266,7.01 58.182,6.864 58.057,6.739C57.953,6.614 57.807,6.531 57.641,6.447C57.474,6.385 57.307,6.343 57.12,6.343C56.932,6.343 56.766,6.385 56.599,6.447C56.432,6.51 56.307,6.614 56.183,6.739C56.078,6.864 55.974,7.01 55.912,7.176C55.849,7.343 55.808,7.551 55.808,7.76C55.808,7.968 55.849,8.156 55.912,8.343C55.974,8.51 56.058,8.655 56.183,8.78C56.287,8.905 56.432,8.989 56.578,9.072C56.745,9.135 56.912,9.176 57.099,9.176C57.287,9.176 57.474,9.135 57.62,9.072C57.787,9.01 57.912,8.905 58.037,8.78C58.141,8.655 58.245,8.51 58.307,8.343C58.37,8.176 58.391,7.968 58.391,7.76C58.391,7.551 58.349,7.364 58.287,7.176M55.328,7.176C55.266,7.01 55.183,6.864 55.058,6.739C54.933,6.614 54.808,6.531 54.62,6.468C54.453,6.406 54.266,6.364 54.058,6.364C53.849,6.364 53.662,6.364 53.474,6.406C53.287,6.426 53.141,6.468 53.016,6.51V10.051H53.641V9.01C53.703,9.051 53.787,9.072 53.912,9.114C54.016,9.135 54.141,9.155 54.266,9.155C54.453,9.155 54.62,9.114 54.766,9.051C54.912,8.989 55.037,8.885 55.141,8.76C55.245,8.635 55.308,8.489 55.37,8.322C55.433,8.156 55.453,7.968 55.453,7.76C55.453,7.551 55.412,7.343 55.349,7.176M54.62,8.385C54.516,8.531 54.349,8.614 54.12,8.614C53.891,8.614 53.912,8.614 53.828,8.572C53.745,8.531 53.662,8.51 53.62,8.468V6.926C53.683,6.926 53.745,6.906 53.808,6.885C53.87,6.885 53.933,6.885 53.995,6.885C54.266,6.885 54.474,6.968 54.599,7.114C54.724,7.26 54.787,7.489 54.787,7.76C54.787,8.031 54.745,8.218 54.641,8.385M50.954,8.593C50.829,8.551 50.725,8.531 50.62,8.489L50.516,9.01C50.579,9.03 50.683,9.072 50.829,9.114C50.975,9.155 51.162,9.176 51.391,9.176C51.745,9.176 52.016,9.114 52.204,8.989C52.391,8.864 52.495,8.655 52.495,8.406C52.495,8.156 52.495,8.176 52.454,8.093C52.433,8.01 52.37,7.926 52.308,7.864C52.245,7.801 52.162,7.739 52.058,7.676C51.954,7.614 51.829,7.572 51.683,7.51C51.599,7.489 51.516,7.447 51.454,7.426C51.391,7.406 51.349,7.364 51.308,7.343C51.266,7.322 51.245,7.281 51.224,7.239C51.224,7.197 51.204,7.156 51.204,7.114C51.204,7.031 51.245,6.968 51.329,6.926C51.412,6.885 51.516,6.864 51.641,6.864C51.766,6.864 51.912,6.864 52.016,6.906C52.12,6.926 52.204,6.968 52.287,6.989L52.391,6.489C52.329,6.468 52.204,6.426 52.079,6.406C51.933,6.385 51.787,6.364 51.62,6.364C51.308,6.364 51.058,6.426 50.891,6.572C50.704,6.718 50.62,6.906 50.62,7.156C50.62,7.406 50.62,7.385 50.683,7.468C50.725,7.551 50.766,7.635 50.85,7.697C50.933,7.76 50.995,7.822 51.099,7.864C51.204,7.906 51.287,7.947 51.412,7.989C51.599,8.051 51.724,8.114 51.808,8.176C51.891,8.239 51.933,8.301 51.933,8.406C51.933,8.51 51.891,8.572 51.829,8.614C51.745,8.655 51.641,8.676 51.474,8.676C51.308,8.676 51.162,8.676 51.037,8.635M49.35,8.385C49.245,8.551 49.079,8.614 48.87,8.614C48.662,8.614 48.516,8.531 48.391,8.385C48.266,8.218 48.225,8.01 48.225,7.739C48.225,7.468 48.287,7.26 48.391,7.114C48.496,6.968 48.662,6.885 48.87,6.885C49.079,6.885 49.245,6.968 49.35,7.114C49.454,7.26 49.516,7.489 49.516,7.739C49.516,7.989 49.454,8.218 49.35,8.385ZM50.058,7.176C49.995,7.01 49.912,6.864 49.787,6.739C49.683,6.614 49.537,6.531 49.37,6.447C49.204,6.385 49.037,6.343 48.85,6.343C48.662,6.343 48.496,6.385 48.329,6.447C48.162,6.51 48.037,6.614 47.912,6.739C47.787,6.864 47.704,7.01 47.641,7.176C47.579,7.343 47.537,7.551 47.537,7.76C47.537,7.968 47.579,8.156 47.641,8.343C47.704,8.51 47.787,8.655 47.912,8.78C48.016,8.905 48.162,8.989 48.308,9.072C48.475,9.135 48.641,9.176 48.829,9.176C49.016,9.176 49.204,9.135 49.35,9.072C49.516,9.01 49.641,8.905 49.766,8.78C49.87,8.655 49.975,8.51 50.037,8.343C50.1,8.176 50.12,7.968 50.12,7.76C50.12,7.551 50.079,7.364 50.016,7.176M47.058,7.176C46.996,7.01 46.912,6.864 46.787,6.739C46.662,6.614 46.516,6.531 46.35,6.468C46.183,6.406 45.996,6.364 45.787,6.364C45.579,6.364 45.392,6.364 45.204,6.406C45.017,6.426 44.871,6.468 44.746,6.51V10.051H45.371V9.01C45.433,9.051 45.517,9.072 45.642,9.114C45.746,9.135 45.871,9.155 45.996,9.155C46.183,9.155 46.35,9.114 46.496,9.051C46.641,8.989 46.766,8.885 46.871,8.76C46.975,8.635 47.037,8.489 47.1,8.322C47.162,8.156 47.183,7.968 47.183,7.76C47.183,7.551 47.141,7.343 47.079,7.176M46.35,8.385C46.246,8.531 46.079,8.614 45.85,8.614C45.621,8.614 45.642,8.614 45.558,8.572C45.475,8.531 45.392,8.51 45.35,8.468V6.926C45.412,6.926 45.475,6.906 45.537,6.885C45.6,6.885 45.662,6.885 45.725,6.885C45.996,6.885 46.204,6.968 46.329,7.114C46.454,7.26 46.516,7.489 46.516,7.76C46.516,8.031 46.454,8.218 46.35,8.385ZM44.183,6.406H42.142V6.926H43.371C43.288,7.031 43.183,7.156 43.058,7.301C42.933,7.447 42.829,7.593 42.704,7.76C42.579,7.926 42.475,8.093 42.35,8.239C42.225,8.385 42.142,8.551 42.058,8.676V9.051H44.183V8.531H42.808C42.913,8.364 43.017,8.218 43.163,8.031C43.288,7.864 43.413,7.697 43.537,7.531C43.662,7.364 43.787,7.218 43.892,7.093C43.996,6.968 44.1,6.864 44.162,6.781V6.343L44.183,6.406ZM39.704,8.322C39.767,8.489 39.85,8.635 39.954,8.76C40.059,8.885 40.204,8.989 40.371,9.051C40.538,9.114 40.746,9.155 40.975,9.155C41.204,9.155 41.267,9.155 41.413,9.114C41.558,9.093 41.663,9.051 41.725,9.03L41.642,8.51C41.558,8.531 41.475,8.572 41.371,8.593C41.267,8.593 41.163,8.614 41.059,8.614C40.767,8.614 40.579,8.531 40.454,8.385C40.329,8.239 40.267,8.01 40.267,7.76C40.267,7.51 40.329,7.26 40.454,7.114C40.579,6.968 40.767,6.885 41.017,6.885C41.267,6.885 41.225,6.885 41.308,6.906C41.392,6.906 41.475,6.947 41.558,6.989L41.683,6.489C41.454,6.406 41.225,6.343 40.975,6.343C40.725,6.343 40.579,6.385 40.413,6.447C40.246,6.51 40.1,6.614 39.996,6.739C39.892,6.864 39.788,7.01 39.725,7.197C39.663,7.364 39.642,7.551 39.642,7.76C39.642,7.968 39.663,8.156 39.725,8.322M37.413,7.489C37.413,7.406 37.434,7.343 37.475,7.26C37.496,7.176 37.538,7.114 37.6,7.051C37.642,6.989 37.705,6.947 37.788,6.906C37.85,6.864 37.934,6.843 38.038,6.843C38.142,6.843 38.205,6.843 38.267,6.885C38.33,6.926 38.392,6.968 38.434,7.01C38.475,7.072 38.517,7.135 38.538,7.218C38.559,7.301 38.579,7.385 38.579,7.468H37.434L37.413,7.489ZM36.85,8.322C36.913,8.489 36.996,8.635 37.1,8.76C37.205,8.885 37.35,8.989 37.538,9.051C37.705,9.114 37.913,9.155 38.163,9.155C38.413,9.155 38.35,9.155 38.434,9.155C38.517,9.155 38.6,9.135 38.684,9.114C38.767,9.114 38.829,9.072 38.892,9.072C38.954,9.072 38.996,9.03 39.038,9.01L38.954,8.51C38.892,8.531 38.788,8.572 38.663,8.593C38.538,8.614 38.392,8.635 38.246,8.635C37.996,8.635 37.788,8.572 37.663,8.468C37.538,8.343 37.455,8.176 37.434,7.968H39.204C39.204,7.926 39.204,7.906 39.204,7.843C39.204,7.801 39.204,7.76 39.204,7.718C39.204,7.26 39.1,6.926 38.892,6.697C38.684,6.468 38.392,6.364 38.038,6.364C37.684,6.364 37.725,6.385 37.58,6.447C37.434,6.51 37.288,6.593 37.184,6.718C37.059,6.843 36.975,6.989 36.913,7.156C36.85,7.343 36.809,7.531 36.809,7.781C36.809,8.031 36.83,8.176 36.892,8.343M36.413,6.406H34.371V6.926H35.601C35.517,7.031 35.413,7.156 35.288,7.301C35.163,7.447 35.059,7.593 34.934,7.76C34.809,7.926 34.705,8.093 34.58,8.239C34.476,8.406 34.371,8.551 34.288,8.676V9.051H36.413V8.531H35.038C35.142,8.364 35.246,8.218 35.392,8.031C35.517,7.864 35.642,7.697 35.767,7.531C35.892,7.364 36.017,7.218 36.121,7.093C36.225,6.968 36.33,6.864 36.392,6.781V6.343L36.413,6.406ZM32.497,6.093C32.601,6.093 32.684,6.135 32.767,6.197C32.851,6.26 32.913,6.301 32.934,6.385C32.976,6.468 32.997,6.551 32.997,6.656C32.997,6.76 32.997,6.864 32.934,6.947C32.892,7.031 32.83,7.072 32.747,7.135C32.663,7.176 32.559,7.218 32.455,7.218C32.33,7.218 32.205,7.239 32.038,7.239H31.747V6.093C31.872,6.093 31.997,6.093 32.122,6.093C32.247,6.093 32.372,6.093 32.476,6.114M31.622,5.51C31.434,5.51 31.267,5.552 31.122,5.572V9.072H31.767V7.739H32.184C32.226,7.739 32.268,7.739 32.309,7.739C32.372,7.822 32.434,7.906 32.517,8.01C32.601,8.114 32.663,8.218 32.747,8.343C32.83,8.468 32.892,8.572 32.976,8.697C33.059,8.822 33.122,8.947 33.184,9.072H33.913C33.851,8.947 33.788,8.801 33.705,8.655C33.621,8.51 33.538,8.385 33.455,8.26C33.372,8.135 33.288,8.01 33.205,7.885C33.122,7.781 33.059,7.676 32.976,7.593C33.455,7.426 33.684,7.093 33.684,6.614C33.684,6.135 33.538,5.947 33.267,5.76C32.997,5.572 32.601,5.468 32.101,5.468C31.601,5.468 31.809,5.468 31.622,5.468" id="path_2"/><path fill="#000000" d="M0.15,0.15h26.55v19.953h-26.55z" fill-opacity="0" stroke="#b3b3b3" stroke-width="0.3" id="path_3"/><path fill="#ffffff" d="M26.7,0.15H0.15V10.15H26.7V0.15Z" id="path_4"/><path fill="#bb0a30" d="M26.7,10.15H0.15V20.103H26.7V10.15Z" id="path_5"/></svg>